<svg xmlns="http://www.w3.org/2000/svg" width="156.195" height="45.725" viewBox="0 0 156.195 45.725"><g transform="translate(-273.168 -4488.5)"><path d="M-1226.021-22210.275c-1.5-.578-2.076-2.086-4.417-1.838a5.96,5.96,0,0,0-2.565-2.406c-1.044-1.119-.667-3.627-1-5.094v-.846c.427-.885.729-2.09,1.144-2.832.05-.09.377-.066.427-.139.083-.133-.091-.443,0-.568s.427-.285.568-.424c.593-.582,1.222-1.027,1.711-1.553h1.14c.394-.18.506-.633.854-.854,1.226-.432,3.191-.133,3.99-.992a3.692,3.692,0,0,0,2.283-.422c.63-.154.708.242,1.139.281.849-.664,1.968-1.057,2.847-1.693a1.692,1.692,0,0,1,.634.152.985.985,0,0,0,1.077-.014c.551-1.5.8-3.861,0-5.234a3.711,3.711,0,0,0-.9-.025c-.738.029-1.575.057-1.811-.539a1.764,1.764,0,0,0-1.152.129,1.886,1.886,0,0,1-.986.154c-.377.33-.539-.408-1-.428a4.159,4.159,0,0,1-1.645-.129c-.845-.2-1.521-.395-2.2.557.062.688.539.969.713,1.555.178,2.16-.385,3.58-1.571,4.385-.563.385-1.459-.131-2.279-.139a2.353,2.353,0,0,0-.6.074,1.441,1.441,0,0,1-.543.064c-.99-.2-1.566-1.023-2.279-1.414-1-2.7-1.044-7.68,2.134-7.92a5.741,5.741,0,0,0,1.57-1.982c1.123.078,1.367-.715,1.993-1.131a5.643,5.643,0,0,0,3.145-.049,8.472,8.472,0,0,1,2.557-.234c.464-.2.791-.531,1.28-.709,1.525.709,4.434.033,5.13,1.555,1.094-.139,1.467.432,2.138.707.145.381.489.553.572.992a6.831,6.831,0,0,1,2.565,6.227c.017.5.406.631.427,1.129-.452,1.432.481,3.525-.427,4.955.667,1.793-.879,4.4.141,6.082a8.565,8.565,0,0,1-.854,2.121c.555.488.5,1.578,1,2.121.709.025.676-.762.995-1.131.187-.209.734.111.431-.424a43.151,43.151,0,0,1,6.269.568c.808-1.014.609-3.279.854-4.955.145-.988.468-1.879-.145-2.545.1-1.881.485-3.768.431-5.662s-.9-3.7.141-5.232c-.2-.818-.87-.881-1-1.7-.186-1.217,1.376-2.658,0-3.537,1.33-1.379-.46-2.635-.568-4.24a2.369,2.369,0,0,0-.771.105c-.613.139-1.33.273-1.653-.393a4.236,4.236,0,0,1-1.993.287c-1.774-1.348-4.26-1.9-3.99-4.816a7.569,7.569,0,0,1,2.851-4.242c1.268-.742,2.117.145,3.133.564a5.119,5.119,0,0,1,2.992.568c.655-.328,2.615-.613,2.851.285a2.449,2.449,0,0,1,3.423.422,43.073,43.073,0,0,0,1.14,4.668c.211.52.808,1.059.854,1.7.07.99-.957,1.889-1.139,2.971-.12.713.215,1.426.141,2.121-.07.678-.6,1.229-.713,1.842a24.732,24.732,0,0,0-.141,5.092c.1,2.115,1.591,3.205.286,5.232a8.037,8.037,0,0,1,.568,2.406c0,.553-.344,1.131-.286,1.7.042.389.394.752.431,1.135.141,1.531-.767,3.053-.572,4.666.087.721.514,1.137.572,1.982a1.964,1.964,0,0,1,1.177.121,2.526,2.526,0,0,0,.957.164c1.235-.119,1.773-1.293,3.278-1.275.406,0,.787,0,1.148-.01a11.534,11.534,0,0,1,3.982.434c.961-1.641.431-4.762,1.284-6.51.12-.275-.041-.275-.195-.275-.133,0-.261,0-.232-.146a13.752,13.752,0,0,1,.286-3.822,29.685,29.685,0,0,0-.286-4.1,23.356,23.356,0,0,1,.286-3.816c-.443-.818-1.222-1.289-.858-2.545.041-.389.522-.336.572-.711.182-1.418-.866-2.027,0-2.971a18.418,18.418,0,0,1-1.139-3.252c-.419.666-.986.5-1.629.324a2.352,2.352,0,0,0-1.508-.041c-.228-.342-.7-.441-.713-.99-2.37-.115-3.418-2.021-3.277-4.105a8.042,8.042,0,0,1,.572-1.98c.046-.094.381-.064.427-.141.244-.393.1-.59.286-.85a4.658,4.658,0,0,1,1.28-1.131c1.173-.512,1.413.324,2.424.568,1.086.258,1.877-.17,2.565.563a7.373,7.373,0,0,1,2.279-.285,3.244,3.244,0,0,1,.854.426,3.363,3.363,0,0,0,1.023-.146,2.381,2.381,0,0,1,.829-.135c.787.127,1.069.744,1.711.99a25.426,25.426,0,0,0,1,4.666c.3.7.849,1.193.854,1.7,0,.377-.236.291-.286.426-.1.281.087.627,0,.85-.162.432-.617.8-.713,1.27-.336,1.686.381,3.7-.854,4.814.166,1.777-.22,3.279,0,4.951.17,1.277.932,2.232.854,3.391-.025.4-.39.639-.427.854-.211,1.2.34,1.656.427,2.4a19.851,19.851,0,0,1-.282,2.264,8.951,8.951,0,0,0,.282.988c.39,2.527-1.376,5.1,0,6.793a2.753,2.753,0,0,1,2.138.568,9.1,9.1,0,0,1,4.989-.852c.568.334.9.9,1.566,1.131.854,2.654.008,5.871-3.7,5.236-.356,0-.667.363-1,.424-.621.113-1.073-.193-1.852-.283a19.551,19.551,0,0,0-2.565.145,10.014,10.014,0,0,1-1.927-.217,7.955,7.955,0,0,0-1.918-.211c-.75.053-1.425.588-2.138.566-.937-.029-1.968-1.006-2.851-.283-.535.014-.522-.52-1-.564-.825,1.018-3.559.145-4.417,1.131-.792-.02-1.334-.52-2.138-.566a12.785,12.785,0,0,0-1.707.283,8.177,8.177,0,0,1-1.769-.152,7.319,7.319,0,0,0-1.935-.131c-.456.055-.953.42-1.426.424-.4,0-.808-.33-1.425-.424a4.711,4.711,0,0,0-1.036,0,3.308,3.308,0,0,1-.957,0c-.439-.107-.766-.627-1.144-.709-.7.385-1.869.316-2.42.854a5.041,5.041,0,0,0-2.229-.135,6.641,6.641,0,0,1-1.761-.01c-1.653-.312-2.151-1.867-3.278-2.547-1.007.65-1.786,1.527-3.278,1.7-.684,1.1-1.749,1.045-3.278.992a11.79,11.79,0,0,0-5.416.846Zm3.99-12.877c-2.068.25-3.427,1.713-5.13,1.986.066.674-.435.793-.713,1.131a4.557,4.557,0,0,0,.854,3.393,4.261,4.261,0,0,1,2.424.852c.713.178,1.152-.453,1.852-.566a6.278,6.278,0,0,1,1.413-.014,9.242,9.242,0,0,0,1.438.014c.841-2.086,2.743-3.129,4.562-4.242.058-1.059.771-3.049-.286-3.537-.634-.164-1.4.5-2.138.707a1.3,1.3,0,0,1-.385-.008,1.134,1.134,0,0,0-.468.008c-.232.072-.12.242-.431.277a7.972,7.972,0,0,1-1.542,0c-.285-.014-.566-.033-.845-.033A5.655,5.655,0,0,0-1222.031-22223.152Zm124.541,12.453c-.257-.48-.808-.508-1.139-.85-.207-.211-.1-.561-.427-.707-.874-.383-1.939-.17-2.851-.564a14.252,14.252,0,0,1-1.566-.707c-.116-.074.054-.232-.141-.285-.389-.1-.149-.156-.572-.424-.021-.012-.4-.111-.427-.141-.638-.674-.559-1.518-.854-2.406-.348-1.039-1.256-1.941-1.57-3.113-.837-.535-.862-1.875-1.707-2.4a28.957,28.957,0,0,1-.323-9.943.116.116,0,0,0,.05-.078c0-.016.013-.031.017-.049a.143.143,0,0,0,.1-.07l.037-.078a.671.671,0,0,0,.124.035c.609.033.037-1.1.568-1.133.472-1.375,1.169-2.447,1.14-3.963.9-.613,1.284-1.748,2-2.545h.854c.472-.193.406-.92.713-1.277,1.413-.246,1.62-1.689,3.137-1.838.191-.045.116-.355.141-.568,1.823-.15,3.17.045,4.131-.846a6.14,6.14,0,0,1,1.79.045,7.994,7.994,0,0,0,1.2.094c.812-.016,1.6-.387,2.283-.139a6.36,6.36,0,0,1,.854.283c.149.086.236.465.427.563a.637.637,0,0,0,.365,0,.639.639,0,0,1,.348,0c.054.025.186.389.286.428.845.336,1.819.422,2.706.707.671.846,2.08.955,2.283,2.264a.976.976,0,0,1,.808.281,1.019,1.019,0,0,0,.758.283c.12.748.924,1.518,1.28,2.406.373.926.369,2.023,1,2.83v1.979a2.8,2.8,0,0,1,.854,2.406c-.05.5-.63,1.021-.854,1.7-.112.338-.025.59-.141.854-.356.793-1.011,1.369-1.139,1.977-.907-.187-1.082.346-1.571.568a3.313,3.313,0,0,1-1.852-.285,3.829,3.829,0,0,0-1.993,0c-.162.037-.1.26-.286.285-2.006.26-4.343-.357-6.555-.568a10.531,10.531,0,0,1-2.138.992c-.439-.082-.783-.391-1.28-.424-.53-.033-.9.369-1.425.424a2.945,2.945,0,0,1-.945-.145,2.751,2.751,0,0,0-.907-.141c-.609.064-.729.5-1.28.426.021.164-.033.254-.145.281-.046.471-.021.873.286.992a21.987,21.987,0,0,0,.427,2.547c.278.807,1.1,1.176.994,1.838a5.889,5.889,0,0,1,3.709,1.7h1.707c.012.363.663.2.286.564a5.4,5.4,0,0,0,2.3-.209,4.816,4.816,0,0,1,2.113-.213c.381-.187.837-.3.713-.992.472.086.609-.17.746-.422s.257-.48.68-.428c.472-1.418,1.749-2.035,2.279-3.393.327.037.539-.037.572-.285h3.563c2.644,2.156.551,6.723-1,8.49a1.525,1.525,0,0,0-1.04.281,1.541,1.541,0,0,1-1.1.285c-.257.629-1.517.859-2.279,1.271-.547.295-1.04.854-1.425.99a.744.744,0,0,1-.352-.006.7.7,0,0,0-.361.006c-.331.135-.588.518-1,.566a4.712,4.712,0,0,1-1.426-.094,3.743,3.743,0,0,0-2.138.094c-.149.055-.1.252-.282.281a4.587,4.587,0,0,1-.781.061C-1095.216-22210.357-1096.3-22210.664-1097.491-22210.7Zm4.417-20.092a4.945,4.945,0,0,0,2.536-.4,5.971,5.971,0,0,1,2.167-.443,3.248,3.248,0,0,0,.713-3.678c-.742-.68-1.782-1.059-2.565-1.7-1,.328-1.537-.691-2.42-.848-1.529-.271-2.441.77-3.99.848-.651.488-.912,1.361-1.425,1.982h-2.138c-.327,1.238-1.546,1.83-1.14,3.395a4.089,4.089,0,0,0,2.225.143,3.179,3.179,0,0,1,2.619.424,2.148,2.148,0,0,1,1.173-.35A10.53,10.53,0,0,1-1093.073-22230.791Zm-50.867,19.525c-2.262.311-2.938-.951-4.7-1.131a3.179,3.179,0,0,1-.713-1.271,43.045,43.045,0,0,0-4.417,2.826,5.614,5.614,0,0,0-2.656-.07,3.353,3.353,0,0,1-2.76-.354,4.927,4.927,0,0,1-2,.283,4.793,4.793,0,0,1-1.852-1.131c-.584-.451-.995-1.158-1.707-1.555a.736.736,0,0,0-.572-.852c.087-.711-.555-1.033-.854-1.557-.369-.639-.427-1.562-1.14-1.98a3.911,3.911,0,0,0-.713-2.4c-.253-4.852.622-11.4-.713-14.717-1.836.65-2.838-.637-3.849-1.27-.17-.455.186-.621-.568-.568-.531-1.338-.033-2.814-.145-4.525.311-.193.431-.824.858-1.133.062-.047.178-.027.294-.008a.506.506,0,0,0,.273.008c.29-.135.667-.615,1.285-.707a3.538,3.538,0,0,1,2.42.564,4.871,4.871,0,0,1,2.851-.424,2.726,2.726,0,0,1,1.711.848.263.263,0,0,0,.22.047c.075-.02.137-.031.207.1.021.041.9.744,1.14.988.348.35.4.924.854.988.431,1.656.485,3.777-.568,4.531.153,1.033-.22,1.451,0,2.262.307,1.137,1.724,1.283,1.14,2.832a1.739,1.739,0,0,0-.079.2c-.041.117-.079.227-.062.219a.588.588,0,0,1-.211,0c-.1-.012-.2-.027-.22,0-.112.2,0,.68-.141.992a2,2,0,0,0-.427,1.838c.091.336.373.49.713.85.128,2.338-.787,4.779,0,6.646.41.975,1.322,1.129,1.566,2.123,1,.23,1.695.77,3.137.566.6-.158.584-.926,1.425-.85v-.85c.717,0,.568-.848,1.139-.99.037-.662.792-.859,1.14-1.27.439-.527.812-1.8,1.566-2.264.079-1.285.99-2.256.713-3.822-.062-.35-.41-.732-.427-1.131-.042-.912.551-1.791.427-2.687-.1-.748-.775-1.156-.713-1.98.054-.691.659-.939,1.139-1.557-.2-.229-.506-.35-.427-.852-.576-.076-1.96-.1-2.424-.7a7.815,7.815,0,0,0-1.115,0,5.352,5.352,0,0,1-1.019,0c-.9-.145-1.409-.824-2.283-.852.124-.736-.551-.676-.713-1.131-.373-1.906,1.073-3.1,2.138-4.246a5.032,5.032,0,0,1,1.425-1.131c.414-.26.978-.086,1.633.09a4.4,4.4,0,0,0,1.786.193c.269-.041.692-.35,1-.283a1.468,1.468,0,0,1,1.285.568,8.927,8.927,0,0,1,5.13.846c.539.68-.137,2.666.713,2.975.352,3.086-.249,6.191-.145,8.91-.448.453-.547,1.248-.995,1.7a71.977,71.977,0,0,1,.427,10.33c1.28.979,3.468.145,4.558,1.275.845.871.6,2.488.286,3.957a8.857,8.857,0,0,0-3.277,2.266,2.542,2.542,0,0,1-.352.025A3.151,3.151,0,0,1-1143.941-22211.266Zm16.438.287c-.6-.01-1.193-.021-1.761,0-.187-.242-.572-.283-.713-.566-.481-.166-.775.23-1.144.283a4.808,4.808,0,0,1-1.653-.131,5.216,5.216,0,0,0-1.338-.152c-.841.049-1.6.732-2.42.283-.381-1.012-1.529-1.422-1.566-2.971a11.47,11.47,0,0,1,.423-1.84,3.749,3.749,0,0,1,4.135-.566,4.064,4.064,0,0,1,1.425-.848c.729-2.355.481-5.334.713-8.484.162-2.244-.1-4.635,0-6.654a6.412,6.412,0,0,0-.286-3.395,25.317,25.317,0,0,0-2.565-1.555c-.215.125.037.211-.145.564a4.407,4.407,0,0,0-1.048.076,3.645,3.645,0,0,1-.945.066c-1.74-.191-2.6-1.68-3.564-2.687a10.551,10.551,0,0,1-.141-2.264,5.658,5.658,0,0,1,3.564-2.547,11.415,11.415,0,0,0,5.271,0,.808.808,0,0,1,.713.563,7.949,7.949,0,0,1,4.276,0c.05.609.58.748.854,1.135a20.353,20.353,0,0,0,.713,2.688,1.838,1.838,0,0,0,1.711-1.555c.721.2.725-.316.994-.568a3.491,3.491,0,0,0,1.856-.283c.684-1.391,2.7-1.461,4.417-1.834.46.535,1.148.484,1.993.432a8.708,8.708,0,0,1,1.284-.014c.141.428.145.988.854.854.253,2,1.91,2.586,2.279,4.244.244,1.1-.518,3.023.572,3.959a9.149,9.149,0,0,1-.315,1.617,1.2,1.2,0,0,0-.021.172.157.157,0,0,0-.021.049,2.211,2.211,0,0,1-.174.434c-.2.145-.286.67-.468.842-.162.152-.737.182-1.14.566-.108.1-.145.43-.286.564-.037.027-.128.012-.215,0s-.182-.033-.211,0c-.253.283.054.082-.572.283-.708.227-.576.8-1.707.568-.394-.084-.514-.416-.858-.568-.414-.184-1.024-.049-1.425-.283-.3-.178-.124-.525-.568-.424-.207-.457-.414-.908-1-.992-.195-.512-.269-1.146-.713-1.414a9.416,9.416,0,0,1,.427-3.678,4.245,4.245,0,0,0-1.707,1.133c-.153.158-.182.473-.286.566-.244.219-.941-.062-.713.564h-.713c-.443.627-.733,1.295-1.14,1.98-.232.4-.539.248-.427,1.133-.866.414-1.305,1.25-2.138,1.7-.63,2.471-.128,5.414-.427,8.484a5.3,5.3,0,0,0-.286,2.408c.174.252.825.029.572.707.464-.041.683.166.708.564a2.866,2.866,0,0,1,1.571.852,12.019,12.019,0,0,1,1.454,0,12.237,12.237,0,0,0,1.537,0c.746-.074,1.2-.4,1.852-.285.543.094.663.7,1.28.564-.07.744.626,1.041.713,1.559.265,1.551-1.04,2.494-1.707,3.535-1.367-.172-2.747.414-3.849.428-.377,0-1.11-.029-1.28-.428a7.105,7.105,0,0,1-3.433.584C-1126.782-22210.965-1127.142-22210.973-1127.5-22210.979Z" transform="translate(1507.67 26744)" fill="#948e8e"/><path d="M-1225.183-22209.775h-.931l-.087-.033a5.817,5.817,0,0,1-1.461-.891,3.418,3.418,0,0,0-2.279-.941,3.924,3.924,0,0,0-.445.025l-.281.029-.17-.227c-.083-.109-.166-.221-.248-.332a4.787,4.787,0,0,0-2.089-1.906l-.112-.041-.082-.086c-.816-.875-.891-2.355-.957-3.66a10.681,10.681,0,0,0-.164-1.666l-.012-.053v-1.018l.05-.1c.186-.387.354-.855.516-1.309a10.765,10.765,0,0,1,.642-1.551.594.594,0,0,1,.34-.273.7.7,0,0,1,.119-.484,1.493,1.493,0,0,1,.416-.342,2.431,2.431,0,0,0,.2-.143c.284-.279.569-.523.845-.758a10.376,10.376,0,0,0,.851-.779l.148-.16h1.22a1.429,1.429,0,0,0,.209-.25,1.928,1.928,0,0,1,.514-.525l.048-.031.054-.018a7.656,7.656,0,0,1,1.761-.309,3.562,3.562,0,0,0,2.029-.553l.17-.184.248.025a4.132,4.132,0,0,0,.457.025,3.035,3.035,0,0,0,1.535-.387l.058-.033.064-.016a1.618,1.618,0,0,1,.385-.049,1.318,1.318,0,0,1,.735.234l.047.027a12.053,12.053,0,0,1,1.352-.787,10.585,10.585,0,0,0,1.293-.756l.125-.092.155,0h.036a2.149,2.149,0,0,1,.774.18l.02.008a1.383,1.383,0,0,0,.417.121.216.216,0,0,0,.067-.01,6.8,6.8,0,0,0,.088-4.432l-.116,0c-.12,0-.254.006-.4.012l-.042,0c-.177.006-.337.012-.5.012a2,2,0,0,1-1.644-.592c-.031,0-.061,0-.09,0a1.452,1.452,0,0,0-.565.139l-.018.008a2.533,2.533,0,0,1-.926.2c-.032,0-.065,0-.1,0a.713.713,0,0,1-.315.072.972.972,0,0,1-.689-.369,1.2,1.2,0,0,0-.142-.135,3.62,3.62,0,0,1-.461.029,5.5,5.5,0,0,1-1.278-.18l-.09-.021a3.677,3.677,0,0,0-.771-.127.825.825,0,0,0-.693.352,1.811,1.811,0,0,0,.269.51,2.794,2.794,0,0,1,.393.77l.015.051,0,.051c.188,2.277-.414,3.906-1.788,4.84a1.39,1.39,0,0,1-.8.229,4.221,4.221,0,0,1-.94-.146,4.044,4.044,0,0,0-.82-.135h-.028a1.944,1.944,0,0,0-.449.061l-.006,0-.063.014a2.182,2.182,0,0,1-.484.072,1.066,1.066,0,0,1-.2-.018l-.007,0a3.968,3.968,0,0,1-1.754-.975,4.522,4.522,0,0,0-.667-.49l-.164-.09-.065-.176c-.78-2.109-.976-5.336.2-7.164a3,3,0,0,1,2.184-1.41l.045-.041a4.769,4.769,0,0,0,1.283-1.645l.135-.34.365.025c.04,0,.079,0,.116,0a1.239,1.239,0,0,0,.984-.537,3.555,3.555,0,0,1,.581-.516l.2-.133.227.072a4,4,0,0,0,1.19.184,7.769,7.769,0,0,0,1.6-.225l.1-.021a9.836,9.836,0,0,1,2.12-.266c.148,0,.3.006.447.014a4.21,4.21,0,0,0,.407-.244,3.838,3.838,0,0,1,.8-.428l.194-.07.187.088a6.579,6.579,0,0,0,2.012.363c1.194.1,2.532.213,3.182,1.123h.05a2.72,2.72,0,0,1,1.538.51,3.207,3.207,0,0,0,.466.256l.2.082.077.2a1.129,1.129,0,0,0,.188.283,1.907,1.907,0,0,1,.358.6,7.323,7.323,0,0,1,2.625,6.527.636.636,0,0,0,.131.277,1.532,1.532,0,0,1,.294.814l0,.088-.026.084a5.349,5.349,0,0,0-.051,1.9,5.427,5.427,0,0,1-.309,2.959,6.777,6.777,0,0,1-.072,2.867,4.431,4.431,0,0,0,.1,2.9l.1.162-.034.188a6.341,6.341,0,0,1-.657,1.758l-.1.2a3.61,3.61,0,0,1,.427,1.037,5.172,5.172,0,0,0,.173.525c.026-.053.058-.125.1-.227a2.012,2.012,0,0,1,.324-.594l.005-.006a.713.713,0,0,1,.195-.154l-.247-.437h.879a38.084,38.084,0,0,1,5.553.469l.449.063a7.936,7.936,0,0,0,.459-2.793c.033-.57.068-1.162.146-1.7.027-.186.06-.365.092-.539.143-.787.209-1.248-.11-1.6l-.143-.154.011-.211c.04-.754.125-1.514.208-2.25a24.314,24.314,0,0,0,.222-3.371,12.93,12.93,0,0,0-.188-1.635,5.362,5.362,0,0,1,.28-3.676,1.558,1.558,0,0,0-.322-.422,1.988,1.988,0,0,1-.622-1.133,3.471,3.471,0,0,1,.311-1.687c.339-.926.366-1.217-.086-1.506l-.515-.33.424-.439c.571-.592.373-1.072-.093-2.016a6.494,6.494,0,0,1-.535-1.338c-.062.014-.126.027-.189.043l-.05.012a4.151,4.151,0,0,1-.888.125,1.412,1.412,0,0,1-1.078-.422,4.411,4.411,0,0,1-1.34.232,3.909,3.909,0,0,1-.516-.033l-.132-.018-.106-.08a13.706,13.706,0,0,0-1.267-.822c-1.478-.887-3.154-1.893-2.919-4.439a8.08,8.08,0,0,1,3.1-4.627,2.389,2.389,0,0,1,1.224-.355,3.57,3.57,0,0,1,1.716.572c.181.1.354.191.527.27.179-.016.356-.023.527-.023a5.472,5.472,0,0,1,2.394.555,4.834,4.834,0,0,1,1.572-.27,2.04,2.04,0,0,1,1.4.412,2.655,2.655,0,0,1,1.3-.338,3.254,3.254,0,0,1,2.361,1.115l.076.086.031.109c.19.658.312,1.314.43,1.947a13.346,13.346,0,0,0,.692,2.67,3.141,3.141,0,0,0,.3.508,2.791,2.791,0,0,1,.587,1.346,3.364,3.364,0,0,1-.617,1.871,3.972,3.972,0,0,0-.528,1.219,2.975,2.975,0,0,0,.063.959,4.065,4.065,0,0,1,.082,1.131,3.315,3.315,0,0,1-.431,1.193,2.643,2.643,0,0,0-.287.686,24.112,24.112,0,0,0-.134,4.961v.018a6.384,6.384,0,0,0,.424,1.836,3.719,3.719,0,0,1-.1,3.492c.049.162.1.316.153.469a5.381,5.381,0,0,1,.373,1.869,3.421,3.421,0,0,1-.163.9,2.187,2.187,0,0,0-.125.744,1.422,1.422,0,0,0,.162.389,2.026,2.026,0,0,1,.269.748,7.345,7.345,0,0,1-.3,2.389,6.465,6.465,0,0,0-.274,2.266,2.711,2.711,0,0,0,.232.74,4.741,4.741,0,0,1,.264.756,3.186,3.186,0,0,1,.907.191l.021.006a2.337,2.337,0,0,0,.667.139c.025,0,.05,0,.075,0a2.641,2.641,0,0,0,1.176-.523,3.628,3.628,0,0,1,2.112-.754h.039l.257,0c.329,0,.64-.006.874-.012h.03c.244,0,.475-.006.706-.006a10.8,10.8,0,0,1,2.993.342,10.262,10.262,0,0,0,.459-2.791,11.536,11.536,0,0,1,.484-2.973.578.578,0,0,1-.192-.152.6.6,0,0,1-.133-.4,10.572,10.572,0,0,1,.2-3.307c.041-.229.084-.467.087-.551a22.422,22.422,0,0,0-.207-3.334c-.032-.273-.06-.508-.078-.707a11.43,11.43,0,0,1,.171-2.865c.052-.338.1-.637.11-.865-.084-.141-.181-.273-.283-.414a2.481,2.481,0,0,1-.563-2.363.97.97,0,0,1,.514-.684c.018-.012.041-.025.059-.039a2.771,2.771,0,0,0-.179-1.189,1.833,1.833,0,0,1,.1-1.758c-.1-.27-.213-.531-.33-.8a12.627,12.627,0,0,1-.554-1.463,1.4,1.4,0,0,1-.5.086,3.489,3.489,0,0,1-.9-.16l-.042-.012a3.132,3.132,0,0,0-.775-.133,1.134,1.134,0,0,0-.421.074l-.375.148-.224-.336a1.072,1.072,0,0,0-.2-.189,1.569,1.569,0,0,1-.506-.613,3.7,3.7,0,0,1-2.341-1.191,4.6,4.6,0,0,1-1.026-3.412,8.331,8.331,0,0,1,.623-2.17.664.664,0,0,1,.521-.338,1.081,1.081,0,0,0,.024-.139,1.156,1.156,0,0,1,.213-.588,5.026,5.026,0,0,1,1.484-1.293,2.187,2.187,0,0,1,.874-.2,2.082,2.082,0,0,1,1.147.406,2.4,2.4,0,0,0,.72.338,4.1,4.1,0,0,0,.981.084,2.372,2.372,0,0,1,1.634.438c.153-.027.306-.066.465-.105a4.629,4.629,0,0,1,1.2-.187,3.378,3.378,0,0,1,.521.041l.011,0a2.451,2.451,0,0,1,.618.246,3.649,3.649,0,0,1,.329.174,3.57,3.57,0,0,0,.717-.133h.006c.041-.012.082-.021.122-.031a3.008,3.008,0,0,1,.724-.127.982.982,0,0,1,.189.016,2.544,2.544,0,0,1,1.255.648,2.085,2.085,0,0,0,.55.367l.257.1.054.271c.105.523.189,1.057.269,1.57a12.853,12.853,0,0,0,.7,2.994,4.584,4.584,0,0,0,.4.7,2.288,2.288,0,0,1,.495,1.2.8.8,0,0,1-.311.7c0,.041.012.084.017.119a1.2,1.2,0,0,1-.024.637,2.928,2.928,0,0,1-.39.664,1.627,1.627,0,0,0-.3.529,8.371,8.371,0,0,0-.084,1.734,4.326,4.326,0,0,1-.742,3.17,17.074,17.074,0,0,1-.032,2.258,12.584,12.584,0,0,0,.011,2.439,6.465,6.465,0,0,0,.415,1.424,4.817,4.817,0,0,1,.441,2.064,1.531,1.531,0,0,1-.365.84c-.025.033-.057.076-.074.1a2.263,2.263,0,0,0,.194,1.367,3.334,3.334,0,0,1,.243.854,4.141,4.141,0,0,1-.145,1.434,3.849,3.849,0,0,0-.134.881,1.192,1.192,0,0,0,.1.348,2.566,2.566,0,0,1,.173.574,9.478,9.478,0,0,1-.262,3.314c-.243,1.2-.455,2.248.01,3.029.066,0,.132,0,.2,0a3.094,3.094,0,0,1,1.734.518,9.2,9.2,0,0,1,4-.807c.318,0,.65.012.987.035l.118.008.1.059c.087.053.168.107.245.164v-.016a3.444,3.444,0,0,0-.616-2.107l-.088-.119-.008-.15c-.086-1.656-.042-3.529,0-5.342.077-3.271.157-6.648-.527-8.793a3.227,3.227,0,0,1-.661.07,4.167,4.167,0,0,1-2.551-1.1c-.207-.156-.4-.3-.589-.422l-.144-.09-.059-.158a1.362,1.362,0,0,1-.066-.246l-.363.025-.135-.34a6.3,6.3,0,0,1-.226-2.887,12.715,12.715,0,0,0,.047-1.789l-.02-.3.254-.158a1.817,1.817,0,0,0,.191-.3,2.306,2.306,0,0,1,.635-.809.672.672,0,0,1,.41-.127,1.5,1.5,0,0,1,.263.029h.009l.034.008c.048-.033.106-.08.157-.119a2.543,2.543,0,0,1,1.2-.59,3.642,3.642,0,0,1,.53-.039,4.1,4.1,0,0,1,2,.535,5.167,5.167,0,0,1,2.043-.414,6.494,6.494,0,0,1,.833.057,2.832,2.832,0,0,1,1.723.766l.145.117c.021,0,.044,0,.067,0a.624.624,0,0,1,.529.293c.065.059.205.176.322.273.293.246.625.525.778.678a2.336,2.336,0,0,1,.394.574,1.192,1.192,0,0,0,.175.273l.33.047.085.322a8.7,8.7,0,0,1,.287,2.768,3.236,3.236,0,0,1-.812,2.1,4.546,4.546,0,0,1-.052,1.049,1.969,1.969,0,0,0,.008.875,1.875,1.875,0,0,0,.54.785,1.973,1.973,0,0,1,.585,2.354l-.466-.162v.295l-.123.1.24.445c-.021.012-.042.023-.064.033l-.083.039h-.054l-.048.006a1.727,1.727,0,0,1-.128.7l0,.006a3.071,3.071,0,0,1-.2.334,1.187,1.187,0,0,0-.2,1.154c.025.092.1.166.286.34.092.084.2.18.308.3l.126.133.01.184a16.524,16.524,0,0,1-.163,2.8,7.59,7.59,0,0,0,.125,3.676,2.322,2.322,0,0,0,.664.824,2.879,2.879,0,0,1,.833,1.078c.212.061.411.131.6.2a4.311,4.311,0,0,0,1.526.326,3.846,3.846,0,0,0,.508-.035c.076-.027.138-.1.257-.24a1.538,1.538,0,0,1,.775-.572v-.9l.5,0h0c.075,0,.087,0,.211-.236a1.511,1.511,0,0,1,.481-.6,1.922,1.922,0,0,1,.846-.963,1.976,1.976,0,0,0,.355-.285,4.55,4.55,0,0,0,.409-.7,4.7,4.7,0,0,1,1.063-1.516,6.463,6.463,0,0,1,.373-1.354,3.878,3.878,0,0,0,.323-2.107,1.619,1.619,0,0,0-.148-.34,2.072,2.072,0,0,1-.286-.857,4.4,4.4,0,0,1,.241-1.432,3.08,3.08,0,0,0,.19-1.209,1.859,1.859,0,0,0-.291-.668,2.32,2.32,0,0,1-.425-1.418,2.023,2.023,0,0,1,.794-1.355c.052-.049.1-.1.156-.15a1.1,1.1,0,0,1-.213-.412,3.9,3.9,0,0,1-2.179-.67c-.08,0-.163-.006-.249-.006-.214,0-.418.012-.609.023l-.063,0c-.2.012-.381.021-.565.021a3.368,3.368,0,0,1-.492-.033h-.006a3.738,3.738,0,0,1-1.249-.49,2.151,2.151,0,0,0-.971-.355l-.573-.018.1-.566c.023-.135.023-.135-.157-.26a1.282,1.282,0,0,1-.533-.619l-.012-.035-.007-.037c-.379-1.936.873-3.234,1.879-4.279.134-.139.261-.27.384-.4a5.234,5.234,0,0,1,1.434-1.156l.092-.059a1.422,1.422,0,0,1,.779-.209,4.561,4.561,0,0,1,1.144.211l.105.029a4.879,4.879,0,0,0,1.235.205,2.532,2.532,0,0,0,.349-.023,2.207,2.207,0,0,0,.233-.092,1.908,1.908,0,0,1,.746-.207.763.763,0,0,1,.116.008c.038,0,.076,0,.113,0a1.844,1.844,0,0,1,1.34.564c.36-.018.686-.025.99-.025a8.49,8.49,0,0,1,4.169.934l.1.049.07.088a2.79,2.79,0,0,1,.347,1.725c0,.283,0,1.039.144,1.09l.291.105.035.309a30.116,30.116,0,0,1-.026,5.432,34.615,34.615,0,0,0-.117,3.516l.008.217-.152.154a2.385,2.385,0,0,0-.394.7,3.965,3.965,0,0,1-.432.8,74.165,74.165,0,0,1,.411,9.908,4.424,4.424,0,0,0,1.767.34,3.747,3.747,0,0,1,2.642.854,2.365,2.365,0,0,1,.531.877l.018-.02a3.832,3.832,0,0,1,2.824-1.1,4.485,4.485,0,0,1,1.6.289,4.437,4.437,0,0,1,1.1-.65,22.184,22.184,0,0,0,.5-5.121c.024-.975.049-1.984.125-3.018a36.345,36.345,0,0,0,.012-3.641c-.032-1.057-.062-2.057-.013-3,.01-.2.024-.4.037-.592a4.891,4.891,0,0,0-.232-2.475,5.616,5.616,0,0,0-1.239-.752c-.2-.1-.411-.207-.614-.32a.025.025,0,0,1,0,.008l-.15.291-.326-.021c-.061,0-.122-.006-.184-.006a4.6,4.6,0,0,0-.75.076l-.01,0-.083.014a5.1,5.1,0,0,1-.724.07,2.36,2.36,0,0,1-.267-.016,5.08,5.08,0,0,1-3.3-2.2c-.195-.229-.379-.445-.565-.641l-.111-.117-.023-.158a10.98,10.98,0,0,1-.145-2.365l.007-.119.06-.1a6.172,6.172,0,0,1,3.861-2.777l.148-.041.145.049a7.444,7.444,0,0,0,2.254.285,12.391,12.391,0,0,0,2.74-.3l.084-.02.086.008a1.25,1.25,0,0,1,.9.475,8.216,8.216,0,0,1,1.9-.207,7.594,7.594,0,0,1,2.3.318l.314.1.027.33c.014.174.092.252.328.449a2.278,2.278,0,0,1,.435.438l.065.094.019.111a16.63,16.63,0,0,0,.558,2.176,1.244,1.244,0,0,0,.882-1.047l.1-.539.528.145a.558.558,0,0,0,.156.027h.012a1.074,1.074,0,0,0,.088-.133,1.594,1.594,0,0,1,.264-.346l.168-.156.228.025a3.665,3.665,0,0,0,.38.021,2.931,2.931,0,0,0,1.069-.205c.715-1.209,2.233-1.48,3.7-1.742.32-.057.651-.117.961-.184l.291-.064.194.227a1.068,1.068,0,0,0,.9.289c.2,0,.414-.014.644-.027l.035,0c.285-.018.545-.033.828-.033.186,0,.358.008.528.021l.331.025.1.316c.027.084.049.164.07.244a1.612,1.612,0,0,0,.093.285h.018a.769.769,0,0,0,.1-.01l.523-.1.067.527a4.019,4.019,0,0,0,1.11,2.146,4.814,4.814,0,0,1,1.161,2.051,5.329,5.329,0,0,1,.021,1.512c-.064.852-.131,1.73.389,2.178l.153.131.018.184c.012-.027.023-.055.035-.084a6.362,6.362,0,0,0,.677-2.67l-.005-.271.224-.152a4.354,4.354,0,0,0,1.121-1.361,8.141,8.141,0,0,1,.784-1.1l.149-.166h.924a1.812,1.812,0,0,0,.136-.359,1.968,1.968,0,0,1,.35-.744l.117-.135.177-.031a2.267,2.267,0,0,0,1.214-.77,3.233,3.233,0,0,1,1.643-1.025,1.591,1.591,0,0,1,.009-.178l.048-.406.408-.033c.426-.035.817-.051,1.2-.068a3.937,3.937,0,0,0,2.637-.646l.113-.1.152-.023a4.886,4.886,0,0,1,.744-.055,9.132,9.132,0,0,1,1.185.1,8.063,8.063,0,0,0,1.05.09h.077a5.221,5.221,0,0,0,.819-.107,5.261,5.261,0,0,1,.946-.117,2,2,0,0,1,.7.117l.007,0c.047.018.146.045.241.07a3.054,3.054,0,0,1,.688.248,1.054,1.054,0,0,1,.37.443c.011.021.024.045.038.068l.043-.006h0a1.646,1.646,0,0,1,.3-.035.813.813,0,0,1,.328.064l.016.008a.735.735,0,0,1,.33.381c.011.021.026.051.041.076a9.822,9.822,0,0,0,1.309.342c.411.088.837.178,1.251.311l.144.047.094.119a3.041,3.041,0,0,0,.842.633,2.9,2.9,0,0,1,1.441,1.457,1.6,1.6,0,0,1,.711.361l.02.016c.167.129.232.174.38.174a.246.246,0,0,0,.037,0l.449-.023.071.443a3.38,3.38,0,0,0,.569,1.1,6.72,6.72,0,0,1,.681,1.2,7.84,7.84,0,0,1,.335,1.154,3.921,3.921,0,0,0,.594,1.553l.106.137v1.926a3.4,3.4,0,0,1,.851,2.686,2.476,2.476,0,0,1-.474,1.055,3.4,3.4,0,0,0-.4.744,1.114,1.114,0,0,0-.043.313,1.555,1.555,0,0,1-.114.584,6.264,6.264,0,0,1-.639,1.053,2.736,2.736,0,0,0-.469.826l-.1.486-.487-.1a1.236,1.236,0,0,0-.251-.029.743.743,0,0,0-.521.24,2.3,2.3,0,0,1-.49.322l-.052.023-.056.012a2.754,2.754,0,0,1-.55.055,4.07,4.07,0,0,1-1.393-.3l-.165-.057a2.429,2.429,0,0,0-.747-.107,4.342,4.342,0,0,0-.818.086.652.652,0,0,1-.489.328,8.66,8.66,0,0,1-1.11.066,23.852,23.852,0,0,1-3.446-.352c-.645-.1-1.31-.2-1.953-.266a10.957,10.957,0,0,1-2.095.953l-.122.041-.127-.023a2.843,2.843,0,0,1-.66-.234,1.667,1.667,0,0,0-.562-.184h-.029a1.3,1.3,0,0,0-.51.166,2.5,2.5,0,0,1-.8.258c-.054,0-.108.008-.162.008a3.944,3.944,0,0,1-.96-.166l-.019-.006a3.137,3.137,0,0,0-.653-.125.474.474,0,0,0-.055,0,.912.912,0,0,0-.415.17,1.621,1.621,0,0,1-.533.24.781.781,0,0,1-.049.066.911.911,0,0,0,.02.275l.221.086.052.271c.076.395.12.768.163,1.129a6.871,6.871,0,0,0,.245,1.35,2.312,2.312,0,0,0,.464.709,2.433,2.433,0,0,1,.514.826,6.314,6.314,0,0,1,3.428,1.664h2.014l.011.328a.7.7,0,0,1,.333.273c.056,0,.111,0,.165,0a5,5,0,0,0,1.465-.232l.045-.012a5.439,5.439,0,0,1,1.592-.256c.17,0,.342.008.522.025l.006,0c.343-.158.341-.166.3-.387l-.128-.711.71.129a.5.5,0,0,0,.084.01l.025,0a1.041,1.041,0,0,0,.106-.174,1.152,1.152,0,0,1,.771-.676,6.132,6.132,0,0,1,1.144-1.625,4.982,4.982,0,0,0,1.018-1.465l.14-.359.382.045a.251.251,0,0,1,.039,0l.039-.293h4.179l.138.113a3.908,3.908,0,0,1,1.427,2.818,8.037,8.037,0,0,1-.684,3.6,10.564,10.564,0,0,1-1.681,2.787l-.17.193-.256-.025c-.041,0-.08-.006-.117-.006a1.1,1.1,0,0,0-.613.217l-.005,0a2.082,2.082,0,0,1-1.085.367,3.662,3.662,0,0,1-1.526.865,7.011,7.011,0,0,0-.783.334,4.709,4.709,0,0,0-.666.479,3.061,3.061,0,0,1-.83.543l-.015.006a.982.982,0,0,1-.289.043,1.771,1.771,0,0,1-.3-.031l-.008,0c-.037,0-.079-.01-.108-.012a1.674,1.674,0,0,0-.237.166,1.712,1.712,0,0,1-.868.422,3.9,3.9,0,0,1-.452.025,6.283,6.283,0,0,1-1.12-.123l-.016,0a5.271,5.271,0,0,0-.9-.1,2.711,2.711,0,0,0-.844.135.674.674,0,0,1-.488.344,4.933,4.933,0,0,1-.865.068,12.2,12.2,0,0,1-1.76-.17,13.852,13.852,0,0,0-1.609-.172l-.29-.008-.137-.256c-.072-.135-.205-.207-.434-.322a2.134,2.134,0,0,1-.623-.416,1.127,1.127,0,0,1-.271-.525c-.007-.027-.016-.061-.024-.082a4.2,4.2,0,0,0-1.219-.227,5.027,5.027,0,0,1-1.6-.326l0,0c-.158-.07-.327-.139-.506-.213a7.46,7.46,0,0,1-1.124-.529.571.571,0,0,1-.245-.307.754.754,0,0,1-.325-.281.284.284,0,0,0-.094-.088l-.042-.012a1.093,1.093,0,0,1-.522-.232l-.008-.008a3.3,3.3,0,0,1-.774-1.8,6.586,6.586,0,0,0-.191-.793,6.43,6.43,0,0,0-.672-1.275,7.586,7.586,0,0,1-.856-1.689,3.381,3.381,0,0,1-.869-1.291,2.236,2.236,0,0,0-.671-.992l-.184-.115-.042-.213a30.159,30.159,0,0,1-.486-8.881c-.066.025-.134.049-.2.07a1.73,1.73,0,0,0-.577.273c-.01.025-.023.061-.032.088a1.242,1.242,0,0,1-.288.508l-.023.021-.026.02a.6.6,0,0,1-.363.113.877.877,0,0,1-.126-.01.564.564,0,0,1-.327.166,2.152,2.152,0,0,0-.326.088.94.94,0,0,0-.362.229,1.422,1.422,0,0,1-1.034.418,2.86,2.86,0,0,1-.565-.064,1.487,1.487,0,0,1-.735-.428.905.905,0,0,0-.224-.174,1.726,1.726,0,0,0-.5-.076,2.211,2.211,0,0,1-.98-.232.919.919,0,0,1-.336-.338l-.267.061-.169-.371c-.217-.479-.326-.662-.614-.705l-.291-.041-.1-.275c-.054-.143-.1-.287-.141-.426-.1-.328-.193-.635-.363-.738l-.215-.129-.024-.252a8.729,8.729,0,0,1,.17-2.77,5.01,5.01,0,0,0-.588.52,1.121,1.121,0,0,0-.064.16,1,1,0,0,1-.251.436.933.933,0,0,1-.508.215l.174.479h-1.161c-.194.3-.362.615-.538.945-.136.256-.277.521-.437.789a1.513,1.513,0,0,1-.311.369c-.021.02-.048.045-.058.057a1.078,1.078,0,0,0,.008.391l.045.357-.326.156a3.82,3.82,0,0,0-.987.781,5.6,5.6,0,0,1-.93.789,19.543,19.543,0,0,0-.267,4.418,34.707,34.707,0,0,1-.1,3.793,3.224,3.224,0,0,1-.121.51,3.929,3.929,0,0,0-.221,1.52.873.873,0,0,1,.6.418.73.73,0,0,1,.066.184.968.968,0,0,1,.593.6,3.247,3.247,0,0,1,1.347.744c.13-.006.265-.01.406-.01.295,0,.58.012.87.025l.05,0c.272.012.53.021.79.021.23,0,.436-.008.628-.025a3.911,3.911,0,0,0,.7-.15,3.282,3.282,0,0,1,.919-.162,2.131,2.131,0,0,1,.369.033,1.546,1.546,0,0,1,.776.418c.142.123.191.158.246.158a.271.271,0,0,0,.064-.008l.669-.146-.064.682c-.022.229.083.371.286.629a1.743,1.743,0,0,1,.422.8,3.839,3.839,0,0,1-1.208,3.137,8.248,8.248,0,0,0-.571.75l-.17.266-.313-.039a3.873,3.873,0,0,0-.462-.027,9.065,9.065,0,0,0-1.766.238,8.433,8.433,0,0,1-1.553.221h-.006a2.57,2.57,0,0,1-1.391-.312,8.624,8.624,0,0,1-3.322.469c-.287,0-.581-.006-.865-.01l-.332-.006c-.327-.006-.665-.012-.989-.012-.235,0-.442,0-.634.01l-.256.008-.156-.2a.9.9,0,0,0-.178-.111,1.654,1.654,0,0,1-.416-.295,1.14,1.14,0,0,0-.246.109,1.7,1.7,0,0,1-.55.2,3.431,3.431,0,0,1-.5.035,6.618,6.618,0,0,1-1.327-.17,5.366,5.366,0,0,0-1.078-.146c-.045,0-.09,0-.134,0a3.036,3.036,0,0,0-.761.193,3.311,3.311,0,0,1-1.094.242,1.705,1.705,0,0,1-.834-.215l-.162-.088-.065-.174a2.937,2.937,0,0,0-.576-.84,5.335,5.335,0,0,1-.625-.838l-.032.152-.229.105a8.441,8.441,0,0,0-3.1,2.129l-.124.15-.193.027a3.141,3.141,0,0,1-.422.029,2.963,2.963,0,0,1-1.607-.5l-.132-.074a5.56,5.56,0,0,1-.587.033,5.327,5.327,0,0,1-2.434-.648,4.851,4.851,0,0,0-1.634-.533l-.189-.02-.129-.141a3.644,3.644,0,0,1-.605-.9c-1.335.754-2.583,1.625-3.795,2.471l-.28.2-.238-.078a3.579,3.579,0,0,0-1.138-.17,9.387,9.387,0,0,0-1.291.119l-.044.008a9.178,9.178,0,0,1-1.283.121,2.843,2.843,0,0,1-1.6-.432,5.887,5.887,0,0,1-1.534.264,3.19,3.19,0,0,1-.434-.029,3.926,3.926,0,0,1-1.769-.979c-.111-.09-.216-.174-.317-.25a5.859,5.859,0,0,1-.73-.705,3.855,3.855,0,0,0-.918-.811l-.283-.158.028-.322c.019-.213-.013-.256-.241-.338l-.378-.133.049-.4a.537.537,0,0,0-.13-.412,4.532,4.532,0,0,1-.748,2.834,3.368,3.368,0,0,1-2.854,1.334,5.946,5.946,0,0,1-.924-.078,1.36,1.36,0,0,0-.279.145,1.763,1.763,0,0,1-.607.268,2.07,2.07,0,0,1-.364.033,3.423,3.423,0,0,1-.906-.156,4.829,4.829,0,0,0-.729-.156,3.379,3.379,0,0,0-.385-.02,9.474,9.474,0,0,0-1.068.082c-.342.039-.7.078-1.044.086h-.077a10.679,10.679,0,0,1-1.951-.225l-.09-.018a8.627,8.627,0,0,0-1.5-.193c-.07,0-.138,0-.2.006a3.139,3.139,0,0,0-.877.256,3.4,3.4,0,0,1-1.254.313h-.057a3.762,3.762,0,0,1-1.19-.3,2.861,2.861,0,0,0-.906-.244.628.628,0,0,0-.423.152l-.133.109-.171,0h-.033a1.124,1.124,0,0,1-.895-.451l-.008-.008a4.324,4.324,0,0,1-2.277.473c-.729.025-1.556.055-1.839.381l-.154.178-.235-.006a3.521,3.521,0,0,1-1.257-.316,2.88,2.88,0,0,0-.9-.25c-.032,0-.063,0-.093,0a2.554,2.554,0,0,0-.678.121,4.205,4.205,0,0,1-.873.164c-.1.008-.2.01-.3.01a10.136,10.136,0,0,1-1.547-.16l-.036-.006a9.292,9.292,0,0,0-1.408-.148,3.556,3.556,0,0,0-.392.02,2.359,2.359,0,0,0-.508.17,2.642,2.642,0,0,1-.97.258h-.011a2.128,2.128,0,0,1-.821-.217,2.893,2.893,0,0,0-.672-.213,2.589,2.589,0,0,0-.349-.021c-.185,0-.376.014-.572.029l-.021,0c-.2.016-.406.033-.6.033a2.164,2.164,0,0,1-.5-.051,2.079,2.079,0,0,1-.812-.479c-.061-.051-.141-.119-.209-.166a5.671,5.671,0,0,1-.974.266,2.521,2.521,0,0,0-1.1.395l-.226.221-.3-.109a3,3,0,0,0-1.059-.162c-.3,0-.608.025-.953.057s-.687.057-1.037.057a4.66,4.66,0,0,1-.861-.072,4.222,4.222,0,0,1-2.443-1.662,6.387,6.387,0,0,0-.748-.77c-.134.094-.267.193-.4.295a5.774,5.774,0,0,1-2.58,1.262,2.954,2.954,0,0,1-2.638,1.051c-.274,0-.562-.01-.867-.021l-.078,0c-.222-.008-.446-.014-.665-.014a10.475,10.475,0,0,0-4.5.8Zm-.741-1h.495a11.629,11.629,0,0,1,4.854-.859c.232,0,.468.006.7.014l.077,0c.3.01.576.02.833.02,1.091,0,1.558-.189,1.924-.779l.127-.205.24-.027a4.631,4.631,0,0,0,2.33-1.1c.234-.174.475-.354.733-.52l.262-.17.267.162a5.356,5.356,0,0,1,1.238,1.148,3.322,3.322,0,0,0,1.874,1.334,3.511,3.511,0,0,0,.676.057c.31,0,.636-.027.952-.053.365-.033.7-.061,1.038-.061a4.193,4.193,0,0,1,1.131.137,3.89,3.89,0,0,1,1.343-.457,3.636,3.636,0,0,0,.937-.279l.164-.088.182.039a1.8,1.8,0,0,1,.748.438,1.336,1.336,0,0,0,.408.273,1.114,1.114,0,0,0,.259.023c.153,0,.33-.014.519-.029l.021,0c.209-.018.431-.033.653-.033a3.239,3.239,0,0,1,.5.033,3.708,3.708,0,0,1,.907.277,1.522,1.522,0,0,0,.44.141,1.94,1.94,0,0,0,.6-.182,2.949,2.949,0,0,1,.773-.238,4.277,4.277,0,0,1,.509-.027,10.057,10.057,0,0,1,1.563.16l.036.006a9.176,9.176,0,0,0,1.392.148c.08,0,.158,0,.232-.006a3.416,3.416,0,0,0,.678-.135,3.414,3.414,0,0,1,.939-.154c.051,0,.1,0,.153,0a3.818,3.818,0,0,1,1.208.32,3.339,3.339,0,0,0,.719.229,4.051,4.051,0,0,1,2.361-.535c.738-.027,1.575-.057,1.848-.393l.169-.209.267.025a1.156,1.156,0,0,1,.783.445c.031.035.053.061.07.078a1.618,1.618,0,0,1,.838-.227,3.569,3.569,0,0,1,1.26.309,3,3,0,0,0,.866.24h.026a2.621,2.621,0,0,0,.888-.244,3.945,3.945,0,0,1,1.173-.32c.088-.006.179-.01.272-.01a9.23,9.23,0,0,1,1.684.211l.089.016a9.759,9.759,0,0,0,1.77.209h.06c.3-.006.614-.041.948-.08a10.664,10.664,0,0,1,1.18-.088,4.052,4.052,0,0,1,.5.027,5.707,5.707,0,0,1,.875.182,2.524,2.524,0,0,0,.645.123.976.976,0,0,0,.185-.018,1.129,1.129,0,0,0,.268-.139,1.566,1.566,0,0,1,.821-.293h.042l.042.008a4.914,4.914,0,0,0,.818.074,2.373,2.373,0,0,0,2.046-.924,4.2,4.2,0,0,0,.346-3.523,3.7,3.7,0,0,1-.873-.643,4.265,4.265,0,0,0-.442-.369c-.271-.016-.538-.023-.794-.023a7.985,7.985,0,0,0-3.8.824l-.27.146-.252-.176a2.271,2.271,0,0,0-1.415-.506,3.225,3.225,0,0,0-.378.023l-.274.033-.174-.213c-.947-1.166-.648-2.641-.359-4.068a8.585,8.585,0,0,0,.253-2.965,1.678,1.678,0,0,0-.114-.355,1.94,1.94,0,0,1-.174-.7,4.67,4.67,0,0,1,.158-1.117,3.268,3.268,0,0,0,.127-1.092,2.454,2.454,0,0,0-.182-.607,3.244,3.244,0,0,1-.241-1.941,1.141,1.141,0,0,1,.253-.494.7.7,0,0,0,.167-.3,3.943,3.943,0,0,0-.379-1.646,7.269,7.269,0,0,1-.471-1.646,13.529,13.529,0,0,1-.018-2.629,15.077,15.077,0,0,0,.016-2.342l-.023-.25.186-.168c.632-.57.615-1.508.594-2.592a9.092,9.092,0,0,1,.1-1.949,2.414,2.414,0,0,1,.469-.918,2.324,2.324,0,0,0,.258-.408c0-.037-.012-.105-.02-.152a1.4,1.4,0,0,1,.025-.709l0-.008a.626.626,0,0,1,.248-.307,2.355,2.355,0,0,0-.324-.6,5.4,5.4,0,0,1-.482-.852,13.477,13.477,0,0,1-.767-3.234c-.066-.422-.134-.857-.214-1.283a3.784,3.784,0,0,1-.564-.406,1.6,1.6,0,0,0-.784-.434l-.012,0h-.012a2.657,2.657,0,0,0-.477.1l-.124.031a4.108,4.108,0,0,1-1.042.164c-.045,0-.09,0-.134,0l.028-.537,0-.463a.5.5,0,0,0-.469.35.489.489,0,0,0,.164.529,5.719,5.719,0,0,0-.653-.314,2.591,2.591,0,0,0-.345-.025,3.731,3.731,0,0,0-.954.156,5.18,5.18,0,0,1-.834.162l-.243.021-.167-.178c-.274-.291-.537-.3-1.106-.307a4.96,4.96,0,0,1-1.21-.111,3.3,3.3,0,0,1-1.013-.461,1.187,1.187,0,0,0-.621-.256,1.207,1.207,0,0,0-.474.121,4.328,4.328,0,0,0-1.077.967c-.011.016-.014.02-.028.123a1.574,1.574,0,0,1-.236.693.656.656,0,0,1-.487.285,8.276,8.276,0,0,0-.438,1.607,3.615,3.615,0,0,0,.776,2.68,2.776,2.776,0,0,0,2.027.893l.465.023.011.465c0,.113.031.15.232.316.044.037.091.076.139.119a2.2,2.2,0,0,1,.445-.043,3.969,3.969,0,0,1,1.032.168l.044.012a2.845,2.845,0,0,0,.645.125c.128,0,.245-.018.388-.244l.706-1.123.211,1.309a8.43,8.43,0,0,0,.671,2.043c.154.359.313.73.448,1.127l.1.281-.2.219c-.291.316-.254.486-.083,1.027a3.642,3.642,0,0,1,.211,1.67.965.965,0,0,1-.515.707c-.019.012-.043.025-.061.039l-.012.039a1.512,1.512,0,0,0,.4,1.535,5.481,5.481,0,0,1,.416.633l.059.109v.123a7.69,7.69,0,0,1-.124,1.152,10.606,10.606,0,0,0-.164,2.625c.016.184.043.412.075.678a23.234,23.234,0,0,1,.213,3.482,5.851,5.851,0,0,1-.1.7,10.547,10.547,0,0,0-.226,2.775.6.6,0,0,1,.412.266.7.7,0,0,1,.014.691l-.009.02a9.023,9.023,0,0,0-.542,2.98,8.634,8.634,0,0,1-.76,3.563l-.2.344-.38-.119a9.633,9.633,0,0,0-3.107-.416c-.225,0-.453,0-.695.006h-.021c-.239.006-.556.012-.893.012l-.268,0h-.029a2.691,2.691,0,0,0-1.568.592,3.544,3.544,0,0,1-1.629.682h-.008c-.052,0-.105.006-.158.006a3.2,3.2,0,0,1-.959-.182l-.034-.012a2.271,2.271,0,0,0-.658-.145.848.848,0,0,0-.233.031l-.588.16-.042-.607a2.776,2.776,0,0,0-.267-.951,3.634,3.634,0,0,1-.3-1.006,7.317,7.317,0,0,1,.295-2.619,6.509,6.509,0,0,0,.276-2.062,1.36,1.36,0,0,0-.16-.379,2.083,2.083,0,0,1-.271-.748,2.987,2.987,0,0,1,.156-1.115,2.667,2.667,0,0,0,.127-.637,4.428,4.428,0,0,0-.32-1.541c-.077-.229-.156-.465-.229-.729l-.06-.215.121-.189a2.742,2.742,0,0,0,.112-2.824,7.284,7.284,0,0,1-.477-2.113v-.018a24.9,24.9,0,0,1,.149-5.187,3.428,3.428,0,0,1,.385-.969,2.5,2.5,0,0,0,.323-.834,3.271,3.271,0,0,0-.073-.859,3.838,3.838,0,0,1-.063-1.295,4.843,4.843,0,0,1,.644-1.543,2.647,2.647,0,0,0,.49-1.309,2.062,2.062,0,0,0-.418-.857,3.847,3.847,0,0,1-.4-.689,14.337,14.337,0,0,1-.749-2.863c-.107-.572-.217-1.162-.376-1.74a2.265,2.265,0,0,0-1.54-.7,1.773,1.773,0,0,0-1.122.418l-.6.48-.2-.744c-.029-.111-.287-.229-.785-.229a3.559,3.559,0,0,0-1.358.264l-.219.109-.221-.105a4.651,4.651,0,0,0-2.168-.553,4.988,4.988,0,0,0-.556.031l-.126.012-.117-.047a7.609,7.609,0,0,1-.73-.363,2.82,2.82,0,0,0-1.241-.451,1.412,1.412,0,0,0-.718.219,7.168,7.168,0,0,0-2.606,3.857c-.177,1.92.976,2.611,2.437,3.488.415.248.843.5,1.245.8.089.008.176.012.262.012a3.617,3.617,0,0,0,1.134-.215c.089-.029.178-.057.268-.082l.4-.117.184.379c.069.143.161.225.427.225a3.144,3.144,0,0,0,.666-.1l.047-.01a3.377,3.377,0,0,1,.726-.115,1.138,1.138,0,0,1,.187.014l.393.064.027.4a4.139,4.139,0,0,0,.513,1.467,2.653,2.653,0,0,1,.245,2.738,1.505,1.505,0,0,1,.383,1.025,3.888,3.888,0,0,1-.316,1.314,2.744,2.744,0,0,0-.262,1.189,1.04,1.04,0,0,0,.359.6,2.2,2.2,0,0,1,.632,1.059l.052.215-.125.184c-.613.9-.447,1.955-.254,3.174a13.732,13.732,0,0,1,.2,1.764,25.052,25.052,0,0,1-.228,3.51c-.074.658-.15,1.338-.192,2a2.843,2.843,0,0,1,.215,2.277c-.03.164-.061.336-.086.5-.072.492-.1,1.035-.137,1.611-.079,1.355-.161,2.756-.82,3.584l-.177.221-.281-.037c-.251-.033-.506-.07-.766-.105a39.5,39.5,0,0,0-4.91-.455c0,.01-.009.018-.014.027a.675.675,0,0,1-.621.307c-.033.064-.066.146-.1.227a1.28,1.28,0,0,1-1.187.99h-.051l-.209-.008-.141-.154a3,3,0,0,1-.571-1.219,1.972,1.972,0,0,0-.389-.865l-.279-.244.155-.338c.081-.178.166-.348.248-.514a5.981,5.981,0,0,0,.532-1.32,5.511,5.511,0,0,1-.129-3.4,5.405,5.405,0,0,0,.047-2.588l-.087-.232.133-.209a4.185,4.185,0,0,0,.278-2.555,6.462,6.462,0,0,1,.063-2.178.788.788,0,0,0-.126-.248,1.506,1.506,0,0,1-.292-.818v-.041l.005-.041a6.332,6.332,0,0,0-2.382-5.771l-.144-.117-.034-.182a.814.814,0,0,0-.207-.354,2.58,2.58,0,0,1-.246-.352c-.156-.078-.295-.164-.43-.248a1.749,1.749,0,0,0-1.011-.359,2.061,2.061,0,0,0-.261.018l-.365.047-.153-.334c-.306-.668-1.39-.76-2.537-.857a8.29,8.29,0,0,1-2.136-.363,4.229,4.229,0,0,0-.423.252,4.249,4.249,0,0,1-.664.375l-.112.047-.122-.01c-.167-.012-.336-.02-.5-.02a8.878,8.878,0,0,0-1.913.244l-.1.021a8.628,8.628,0,0,1-1.811.246,4.9,4.9,0,0,1-1.232-.156c-.082.072-.162.156-.245.242a2.225,2.225,0,0,1-1.532.838,6.235,6.235,0,0,1-1.381,1.684l-.166.158-.13.125-.18.014a1.983,1.983,0,0,0-1.6.973c-.934,1.455-.814,4.207-.158,6.111a6.766,6.766,0,0,1,.653.5,3.085,3.085,0,0,0,1.308.764.059.059,0,0,0,.012,0,1.627,1.627,0,0,0,.264-.047l.062-.014a2.787,2.787,0,0,1,.676-.088h.042a4.955,4.955,0,0,1,1.034.16,3.48,3.48,0,0,0,.713.121.4.4,0,0,0,.241-.055c1.059-.721,1.5-1.988,1.359-3.875a2.076,2.076,0,0,0-.254-.457,2.367,2.367,0,0,1-.464-1.15l-.017-.186.108-.15a1.916,1.916,0,0,1,1.631-.928,4.359,4.359,0,0,1,1,.154l.091.021a4.606,4.606,0,0,0,1.051.152,2.794,2.794,0,0,0,.406-.031l.048-.008.049,0a1.2,1.2,0,0,1,.8.422l.02-.016.223.025a1.632,1.632,0,0,0,.165.01,1.556,1.556,0,0,0,.578-.133l0,0a2.379,2.379,0,0,1,.928-.207,2.45,2.45,0,0,1,.5.055l.264.055.1.252c.023.059.094.234.865.234.145,0,.295,0,.461-.012l.041,0c.145-.006.295-.012.435-.012a2.407,2.407,0,0,1,.555.053l.208.051.108.184a5.478,5.478,0,0,1,.574,2.838,9.4,9.4,0,0,1-.537,2.82l-.051.139-.117.088a1.274,1.274,0,0,1-.78.271,2.121,2.121,0,0,1-.78-.189l-.01,0a2.6,2.6,0,0,0-.307-.1,12.668,12.668,0,0,1-1.258.723,9.36,9.36,0,0,0-1.418.852l-.156.121-.2-.018a1.33,1.33,0,0,1-.615-.229c-.117-.07-.148-.086-.213-.086a.4.4,0,0,0-.091.01,4.049,4.049,0,0,1-1.95.475c-.107,0-.218,0-.33-.012a4.666,4.666,0,0,1-2.474.691,7.616,7.616,0,0,0-1.464.234,1.582,1.582,0,0,0-.206.246,1.709,1.709,0,0,1-.67.613l-.1.045h-1.036c-.243.242-.505.467-.78.7s-.534.455-.793.709a2.265,2.265,0,0,1-.361.268l-.059.039a.8.8,0,0,1-.074.594l-.012.018a.672.672,0,0,1-.488.264,12.584,12.584,0,0,0-.487,1.236c-.157.439-.319.893-.507,1.3v.68a11.812,11.812,0,0,1,.175,1.779,5.748,5.748,0,0,0,.62,2.947,5.774,5.774,0,0,1,2.425,2.2l.079.107c.089-.006.177-.008.262-.008a4.4,4.4,0,0,1,2.885,1.145A5.225,5.225,0,0,0-1225.925-22210.775Zm128.7-.412c.512.029,1,.1,1.47.17a11.342,11.342,0,0,0,1.615.16,4.33,4.33,0,0,0,.549-.031.664.664,0,0,1,.342-.279,3.761,3.761,0,0,1,1.305-.236,6.208,6.208,0,0,1,1.069.115l.02,0a5.422,5.422,0,0,0,.949.107,3.214,3.214,0,0,0,.337-.018.968.968,0,0,0,.368-.219,2.084,2.084,0,0,1,.492-.312.841.841,0,0,1,.343-.066,2.015,2.015,0,0,1,.261.023l.044.006a1.025,1.025,0,0,0,.117.018,3.374,3.374,0,0,0,.512-.369,5.422,5.422,0,0,1,.819-.58,7.6,7.6,0,0,1,.9-.389c.448-.172,1.061-.406,1.153-.633l.144-.352.377.045a1.32,1.32,0,0,0,.148.008,1.124,1.124,0,0,0,.634-.225l.009-.006a2.07,2.07,0,0,1,1.063-.355,8.854,8.854,0,0,0,1.972-5.469,2.968,2.968,0,0,0-.932-2.014h-3.073a.855.855,0,0,1-.551.283,6.571,6.571,0,0,1-1.062,1.449,4.668,4.668,0,0,0-1.068,1.6l-.13.389-.407-.051c-.019,0-.036,0-.05,0l-.024,0a1.043,1.043,0,0,0-.1.17h0l0,0a1.2,1.2,0,0,1-.688.654,1.338,1.338,0,0,1-.87.912l-.118.057-.132.064-.146-.018a5.02,5.02,0,0,0-.551-.033,4.643,4.643,0,0,0-1.326.219l-.045.014a5.983,5.983,0,0,1-1.731.268,6.983,6.983,0,0,1-.761-.045l-1.066-.115.464-.445h-1.513l-.23-.186a5.3,5.3,0,0,0-3.324-1.514l-.559-.023.087-.555c.021-.133-.085-.275-.331-.57a3.225,3.225,0,0,1-.642-1.027,7.53,7.53,0,0,1-.293-1.555c-.033-.277-.067-.562-.115-.852a1.591,1.591,0,0,1-.33-1.344l.034-.354.087-.02-.055-.441.647.088c.02,0,.039,0,.056,0,.073,0,.124-.029.266-.117a1.856,1.856,0,0,1,.836-.316c.05,0,.106-.008.163-.008a3.674,3.674,0,0,1,.9.158l.018,0a3.206,3.206,0,0,0,.709.135.582.582,0,0,0,.061,0,1.583,1.583,0,0,0,.481-.17,2.135,2.135,0,0,1,.931-.258.753.753,0,0,1,.093,0,2.454,2.454,0,0,1,.913.271,3.194,3.194,0,0,0,.315.129,10.008,10.008,0,0,0,1.9-.9l.141-.086.164.016c.72.068,1.456.18,2.169.287a22.546,22.546,0,0,0,3.3.342,7.5,7.5,0,0,0,.807-.039.65.65,0,0,1,.41-.3,4.268,4.268,0,0,1,2.261.014l.005,0,.178.061a3.188,3.188,0,0,0,1.063.242,1.8,1.8,0,0,0,.29-.023,1.816,1.816,0,0,0,.233-.168,1.7,1.7,0,0,1,1.147-.461h.015a5.5,5.5,0,0,1,.479-.762,5.418,5.418,0,0,0,.542-.881.729.729,0,0,0,.029-.227,2.041,2.041,0,0,1,.093-.578,4.249,4.249,0,0,1,.513-.975,1.938,1.938,0,0,0,.318-.613,2.332,2.332,0,0,0-.666-1.965l-.19-.15v-2.059a5.093,5.093,0,0,1-.673-1.795,7,7,0,0,0-.289-1.01,6,6,0,0,0-.587-1.023,5.668,5.668,0,0,1-.619-1.1,1.618,1.618,0,0,1-.665-.348l-.028-.021c-.16-.127-.221-.17-.353-.17-.023,0-.049,0-.075,0l-.476.053-.073-.473c-.085-.551-.461-.8-1.066-1.158a4.248,4.248,0,0,1-1.008-.746c-.326-.1-.665-.17-1.021-.246a9.759,9.759,0,0,1-1.584-.432.8.8,0,0,1-.386-.393,1.743,1.743,0,0,1-.283.029.82.82,0,0,1-.372-.084,1.144,1.144,0,0,1-.454-.518c-.013-.025-.031-.057-.045-.082a4,4,0,0,0-.4-.123c-.127-.035-.236-.064-.328-.1a1.017,1.017,0,0,0-.354-.055,4.469,4.469,0,0,0-.764.1,5.793,5.793,0,0,1-.982.125h-.1a8.819,8.819,0,0,1-1.18-.1,7.9,7.9,0,0,0-1.055-.09,3.827,3.827,0,0,0-.455.025,4.972,4.972,0,0,1-3.151.8c-.233.01-.472.02-.719.035a.656.656,0,0,1-.5.586l-.033.008-.033,0a2.12,2.12,0,0,0-1.356.791,3.353,3.353,0,0,1-1.514.99c-.032.078-.061.176-.089.266a1.418,1.418,0,0,1-.75,1.033l-.091.037h-.719a9.058,9.058,0,0,0-.543.8,5.821,5.821,0,0,1-1.188,1.494,7.752,7.752,0,0,1-.751,2.811c-.141.342-.288.7-.414,1.063l-.109.316-.118.008c0,.025,0,.051,0,.074a1.132,1.132,0,0,1-.246.859.726.726,0,0,1-.423.205,28.322,28.322,0,0,0,.309,9.4,3.389,3.389,0,0,1,.86,1.285,2.26,2.26,0,0,0,.663.984l.163.105.05.188a6.131,6.131,0,0,0,.791,1.6,7.28,7.28,0,0,1,.77,1.488,7.27,7.27,0,0,1,.223.914,2.621,2.621,0,0,0,.45,1.229l.154.045a.966.966,0,0,1,.227.084l.019.012a1.347,1.347,0,0,1,.4.354c.008,0,.018.006.029.008a.618.618,0,0,1,.456.445c.225.117.513.234.794.35.177.072.36.146.532.225a4.259,4.259,0,0,0,1.293.246,4.882,4.882,0,0,1,1.557.316,1,1,0,0,1,.56.721c.01.035.023.082.032.1a1.476,1.476,0,0,0,.347.213A2.053,2.053,0,0,1-1097.222-22211.187Zm-46.629-.6.141.074c.105.055.2.111.3.166a2.021,2.021,0,0,0,1.11.369c.034,0,.068,0,.1,0a9.222,9.222,0,0,1,3.089-2.137c.27-1.342.4-2.633-.206-3.262a3.015,3.015,0,0,0-1.988-.551,4.471,4.471,0,0,1-2.515-.676l-.2-.156.009-.258a71.928,71.928,0,0,0-.423-10.246l-.033-.244.175-.176a2.383,2.383,0,0,0,.394-.7,3.826,3.826,0,0,1,.448-.824c-.029-1.1.046-2.229.124-3.422a30.8,30.8,0,0,0,.056-5.006c-.5-.4-.5-1.2-.5-1.865a3.565,3.565,0,0,0-.089-1.029,7.493,7.493,0,0,0-3.6-.766c-.346,0-.724.012-1.155.035l-.222.012-.168-.168c-.284-.281-.436-.418-.784-.418-.032,0-.066,0-.1,0l-.072.006-.061-.014a1.608,1.608,0,0,0-.342.123,1.986,1.986,0,0,1-.486.164,3.482,3.482,0,0,1-.5.035,5.75,5.75,0,0,1-1.493-.24l-.108-.029a3.942,3.942,0,0,0-.883-.176.439.439,0,0,0-.247.057l-.091.057a4.371,4.371,0,0,0-1.235.992c-.127.137-.263.279-.395.416-.962,1-1.871,1.941-1.628,3.334a1.118,1.118,0,0,0,.154.121,1.222,1.222,0,0,1,.566.73,3.866,3.866,0,0,1,.951.414,2.862,2.862,0,0,0,.921.377,2.467,2.467,0,0,0,.344.021c.158,0,.33-.01.512-.02l.061,0c.194-.01.423-.023.664-.023.182,0,.351.008.518.021l.222.018.135.178c.255.332,1.252.428,1.731.473.138.012.257.023.361.037l.508.068-.08.506c-.02.127-.02.127.13.266a2.3,2.3,0,0,1,.18.18l.271.311-.253.324a4.993,4.993,0,0,1-.551.584c-.313.295-.464.449-.484.705a1.386,1.386,0,0,0,.289.834,2.717,2.717,0,0,1,.42,1.039,3.852,3.852,0,0,1-.219,1.621,3.607,3.607,0,0,0-.2,1.111,1.341,1.341,0,0,0,.175.443,2.207,2.207,0,0,1,.245.623,4.8,4.8,0,0,1-.366,2.619,4.849,4.849,0,0,0-.34,1.322l-.016.26-.222.135a3.391,3.391,0,0,0-.913,1.277,5.088,5.088,0,0,1-.531.881,2.771,2.771,0,0,1-.55.461c-.322.225-.465.342-.475.516l-.021.369-.357.088c-.039.01-.091.1-.16.234a1.4,1.4,0,0,1-.6.666v1l-.545-.049c-.024,0-.047,0-.068,0-.159,0-.212.047-.392.264a1.507,1.507,0,0,1-.792.574l-.029.008-.03,0a4.907,4.907,0,0,1-.685.051,5.265,5.265,0,0,1-1.858-.383,7.01,7.01,0,0,0-.775-.242l-.3-.068-.073-.3a1.7,1.7,0,0,0-.631-.873,3.229,3.229,0,0,1-.91-1.176,8.255,8.255,0,0,1-.2-4.178,17.089,17.089,0,0,0,.166-2.447q-.067-.064-.132-.123a1.69,1.69,0,0,1-.572-.811,2.159,2.159,0,0,1,.323-1.957,2.25,2.25,0,0,0,.134-.225,1.316,1.316,0,0,0,.036-.367,1.343,1.343,0,0,1,.12-.654s0,0,0,0a.544.544,0,0,1,.5-.273h.007c0-.01.006-.018.009-.025s.018-.043.027-.062c.246-.658.039-.873-.373-1.3a2.794,2.794,0,0,1-.784-1.217,2.9,2.9,0,0,1-.033-1.275,3.289,3.289,0,0,0,.021-1.043l-.045-.3.248-.178c.742-.531.779-2.242.436-3.748a1.572,1.572,0,0,1-.564-.672,1.5,1.5,0,0,0-.221-.34c-.121-.121-.463-.408-.713-.619-.188-.158-.3-.252-.37-.314a.741.741,0,0,1-.435-.158c-.092-.072-.173-.139-.248-.2a1.9,1.9,0,0,0-1.224-.547,5.144,5.144,0,0,0-.7-.049,4.348,4.348,0,0,0-1.882.434l-.251.111-.229-.152a3.113,3.113,0,0,0-1.685-.514,2.726,2.726,0,0,0-.383.027,1.638,1.638,0,0,0-.735.391,2.2,2.2,0,0,1-.413.275.707.707,0,0,1-.3.063,1.4,1.4,0,0,1-.272-.031,2.219,2.219,0,0,0-.262.4,2.682,2.682,0,0,1-.291.453,14.934,14.934,0,0,1-.059,1.688,6.649,6.649,0,0,0,.054,2.125.647.647,0,0,1,.651.719c0,.018,0,.033,0,.049.164.111.326.234.484.355a3.243,3.243,0,0,0,1.946.9,2.423,2.423,0,0,0,.807-.148l.452-.16.179.445c.922,2.293.834,6.014.75,9.609-.041,1.74-.083,3.539-.009,5.123a4.34,4.34,0,0,1,.715,2.311,3.009,3.009,0,0,1,.816,1.373,4.018,4.018,0,0,0,.262.619,2.52,2.52,0,0,0,.3.387,2.051,2.051,0,0,1,.612,1.1,1.133,1.133,0,0,1,.573.893,5.568,5.568,0,0,1,.913.848,5.07,5.07,0,0,0,.6.588c.108.082.218.17.335.266a3.311,3.311,0,0,0,1.282.768,2.41,2.41,0,0,0,.295.02,5.763,5.763,0,0,0,1.445-.275l.3-.082.2.156a1.8,1.8,0,0,0,1.194.369,8.591,8.591,0,0,0,1.142-.111l.043-.006a9.951,9.951,0,0,1,1.432-.131,4.687,4.687,0,0,1,1.205.148,41.469,41.469,0,0,1,4.271-2.721l.541-.287.173.588a2.673,2.673,0,0,0,.486.939,5.981,5.981,0,0,1,1.756.6,4.4,4.4,0,0,0,2.009.553,4.583,4.583,0,0,0,.617-.045Zm15.237.291c.333,0,.675.006,1.006.012l.333.006c.28,0,.57.01.848.01a6.876,6.876,0,0,0,3.178-.514l.491-.291.219.514c.028.023.192.135.822.135a7.839,7.839,0,0,0,1.364-.2,9.967,9.967,0,0,1,1.965-.258c.094,0,.186,0,.277.008.147-.2.308-.4.465-.59a2.937,2.937,0,0,0,1-2.338,1.074,1.074,0,0,0-.22-.348,2.19,2.19,0,0,1-.457-.812,1.519,1.519,0,0,1-.613-.365.683.683,0,0,0-.3-.189,1.128,1.128,0,0,0-.2-.018,2.492,2.492,0,0,0-.649.125,4.923,4.923,0,0,1-.873.184h-.007c-.222.02-.457.029-.717.029-.279,0-.558-.012-.828-.021l-.054,0c-.282-.014-.554-.025-.828-.025-.205,0-.392.008-.57.02l-.249.02-.164-.189a2.374,2.374,0,0,0-1.307-.693l-.363-.084-.023-.371a.386.386,0,0,0-.015-.094.458.458,0,0,0-.083-.008c-.021,0-.043,0-.067,0l-.789.07.249-.668a.865.865,0,0,1-.487-.322l-.048-.07-.023-.08a4.248,4.248,0,0,1,.184-2.262c.036-.127.082-.283.087-.332a33.935,33.935,0,0,0,.094-3.682,19.065,19.065,0,0,1,.346-4.875l.054-.213.193-.1a4.147,4.147,0,0,0,.9-.74,5.613,5.613,0,0,1,.95-.8,1.113,1.113,0,0,1,.4-.967.605.605,0,0,0,.122-.137c.149-.252.285-.508.416-.754a11.785,11.785,0,0,1,.746-1.264l.15-.211h.483a.838.838,0,0,1,.049-.094.9.9,0,0,1,.733-.361l.062-.006v0a1.352,1.352,0,0,1,.283-.514,4.7,4.7,0,0,1,1.907-1.26l.889-.3-.248.9a9.053,9.053,0,0,0-.429,3.285,2.488,2.488,0,0,1,.581,1.133c.013.043.025.082.037.123a1.7,1.7,0,0,1,.93.912.736.736,0,0,1,.5.463l.017.037a1.635,1.635,0,0,0,.528.088,2.4,2.4,0,0,1,.829.16,1.762,1.762,0,0,1,.5.357c.127.119.178.162.257.18a1.963,1.963,0,0,0,.359.043c.18,0,.221-.035.377-.172a1.894,1.894,0,0,1,.715-.428c.135-.043.234-.07.306-.088.012-.016.026-.031.041-.047a.576.576,0,0,1,.448-.2c.021,0,.041,0,.061,0a.99.99,0,0,1,.238-.408,2.464,2.464,0,0,1,.99-.529c.049-.016.112-.037.153-.053.027-.053.063-.143.089-.207a1.8,1.8,0,0,1,.3-.547c.017-.035.033-.068.048-.1a.818.818,0,0,0,.051-.113l0-.025a.6.6,0,0,1,.02-.078c0-.043.01-.088.02-.137a6.566,6.566,0,0,1,.158-.684,5.261,5.261,0,0,0,.146-.639,3.651,3.651,0,0,1-.557-2.838,4.731,4.731,0,0,0,0-1.219,3.912,3.912,0,0,0-.957-1.633,5.323,5.323,0,0,1-1.251-2.219,1.1,1.1,0,0,1-.82-.873l-.1,0c-.254,0-.5.016-.765.031l-.035,0c-.247.016-.48.029-.707.029a2.2,2.2,0,0,1-1.439-.42c-.245.049-.493.094-.735.137-1.354.242-2.632.471-3.077,1.375l-.083.168-.173.072a4,4,0,0,1-1.615.348q-.1,0-.2-.006a1.063,1.063,0,0,1-.861.592,2.339,2.339,0,0,1-2,1.506l-.428.068-.182-.582a20.349,20.349,0,0,1-.652-2.451,2.028,2.028,0,0,0-.2-.174,1.769,1.769,0,0,1-.613-.781,7.3,7.3,0,0,0-1.713-.189,6.684,6.684,0,0,0-1.981.268l-.412.137-.193-.389-.028-.059c-.056-.119-.087-.187-.217-.217a13.754,13.754,0,0,1-2.879.3,9.034,9.034,0,0,1-2.418-.289,5.119,5.119,0,0,0-3.065,2.176,9.863,9.863,0,0,0,.121,1.887c.167.184.332.377.492.564a4.25,4.25,0,0,0,2.653,1.854c.05,0,.1.008.155.008h0a3.87,3.87,0,0,0,.576-.061l.08-.012a6.121,6.121,0,0,1,.683-.082.62.62,0,0,1,.337-.5l.286-.166.265.2a6.94,6.94,0,0,0,1.065.611,6.032,6.032,0,0,1,1.547.984l.06.059.038.074a5.535,5.535,0,0,1,.375,3.072c-.013.188-.026.381-.036.574-.047.906-.017,1.885.014,2.922a37.018,37.018,0,0,1-.015,3.742c-.074,1.01-.1,2.006-.123,2.971a21.336,21.336,0,0,1-.611,5.627l-.077.248-.247.08a3.6,3.6,0,0,0-1.253.75l-.248.213-.3-.141a3.39,3.39,0,0,0-1.465-.32,2.965,2.965,0,0,0-1.988.676,6.263,6.263,0,0,1-.209.748,2.473,2.473,0,0,0-.179.838,2.422,2.422,0,0,0,.781,1.668,4.342,4.342,0,0,1,.667.938,1.673,1.673,0,0,0,.979-.156,3.916,3.916,0,0,1,1.03-.248c.063,0,.127,0,.191,0a6.243,6.243,0,0,1,1.277.166,5.717,5.717,0,0,0,1.128.15,2.6,2.6,0,0,0,.355-.023.988.988,0,0,0,.227-.1,1.6,1.6,0,0,1,.755-.229,1.21,1.21,0,0,1,.4.068l.193.066.089.18a1.054,1.054,0,0,0,.173.109,2.1,2.1,0,0,1,.288.178C-1128.928-22211.49-1128.777-22211.492-1128.614-22211.492Zm-95.732-3.768a1.507,1.507,0,0,1-.371-.047l-.122-.029-.093-.084a3.734,3.734,0,0,0-2.142-.725l-.258-.029-.126-.227c-.051-.092-.1-.184-.154-.273a4.724,4.724,0,0,1-.756-3.436l.021-.137.087-.107a2.244,2.244,0,0,1,.343-.322c.231-.186.279-.232.259-.441l-.046-.469.464-.074a6.988,6.988,0,0,0,2.094-.854,8.558,8.558,0,0,1,3.055-1.135l.007,0a6.315,6.315,0,0,1,.659-.035c.226,0,.452.012.67.023.066,0,.132.008.2.01l.01,0c.271.018.559.037.842.037a4.893,4.893,0,0,0,.558-.029.774.774,0,0,1,.38-.262,1.117,1.117,0,0,1,.356-.055,2.755,2.755,0,0,1,.3.021l.036,0c.075.008.146.016.195.016h.015a4.859,4.859,0,0,0,.693-.3,3.113,3.113,0,0,1,1.346-.439,1.364,1.364,0,0,1,.336.041l.044.012.041.02c1.143.527.884,2.047.7,3.156a8.545,8.545,0,0,0-.12.861l-.014.262-.224.137c-.122.076-.244.15-.366.225-1.682,1.021-3.27,1.986-3.993,3.779l-.114.283-.3.027c-.189.018-.383.025-.595.025-.331,0-.657-.021-.92-.039l-.073,0c-.244-.014-.475-.027-.692-.027a3.152,3.152,0,0,0-.529.039l-.007,0a1.949,1.949,0,0,0-.6.252A2.209,2.209,0,0,1-1224.346-22215.26Zm-.03-1h.03a1.4,1.4,0,0,0,.6-.229,2.757,2.757,0,0,1,.919-.361,3.94,3.94,0,0,1,.7-.055c.246,0,.5.016.75.029l.076,0c.264.018.56.037.859.037.074,0,.145,0,.214,0,.892-1.912,2.61-2.955,4.274-3.967l.149-.09c.026-.221.066-.459.109-.707.13-.766.308-1.8-.088-2.059a.3.3,0,0,0-.042,0,2.535,2.535,0,0,0-.9.334,5.352,5.352,0,0,1-.891.379l-.028.008a1.111,1.111,0,0,1-.237.023,2.541,2.541,0,0,1-.3-.021h-.011l-.025,0c-.071-.008-.139-.014-.19-.016a.783.783,0,0,1-.57.3,5.587,5.587,0,0,1-.726.043c-.313,0-.619-.02-.906-.039l-.2-.012c-.215-.01-.418-.021-.617-.021a5.291,5.291,0,0,0-.549.029,7.71,7.71,0,0,0-2.7,1.025,9.248,9.248,0,0,1-2.01.875,1.493,1.493,0,0,1-.6.857l-.113.094a3.742,3.742,0,0,0,.657,2.635c.012.021.023.041.035.061A4.593,4.593,0,0,1-1224.376-22216.26Zm131.854-13.988h0a4.018,4.018,0,0,1-.63-.049,4.063,4.063,0,0,1-.864-.279,3.542,3.542,0,0,0-1.3-.344,1.659,1.659,0,0,0-.907.273l-.322.2-.281-.256a1.683,1.683,0,0,0-1.209-.371,9.8,9.8,0,0,0-1.019.074,10.013,10.013,0,0,1-1.137.086,3.036,3.036,0,0,1-1.362-.275l-.206-.1-.058-.223a2.954,2.954,0,0,1,.608-2.609,3.612,3.612,0,0,0,.532-1.037l.1-.373h2.275c.119-.172.229-.363.344-.562a4.073,4.073,0,0,1,1.03-1.32l.122-.092.153-.008a4.942,4.942,0,0,0,1.618-.432,5.01,5.01,0,0,1,1.893-.461,3.38,3.38,0,0,1,.592.053,2.937,2.937,0,0,1,1.13.533,1.616,1.616,0,0,0,.814.371.782.782,0,0,0,.233-.039l.26-.086.212.174a8.3,8.3,0,0,0,1.134.732,8.052,8.052,0,0,1,1.452.984l.07.064.042.084a3.753,3.753,0,0,1-.844,4.283l-.143.119-.185,0h-.071a5.687,5.687,0,0,0-1.922.416l-.068.023A6.192,6.192,0,0,1-1092.522-22230.248Zm-2.8-1.672a4.456,4.456,0,0,1,1.677.416,3.394,3.394,0,0,0,.645.219,3.008,3.008,0,0,0,.474.037,5.321,5.321,0,0,0,1.755-.395l.067-.023a6.78,6.78,0,0,1,2.135-.471,2.821,2.821,0,0,0,.5-2.873,7.749,7.749,0,0,0-1.2-.791,11.357,11.357,0,0,1-1.069-.67,1.828,1.828,0,0,1-.271.021,2.424,2.424,0,0,1-1.371-.541,2.135,2.135,0,0,0-.747-.379,2.338,2.338,0,0,0-.417-.037,4.1,4.1,0,0,0-1.527.393,6.26,6.26,0,0,1-1.764.486,3.888,3.888,0,0,0-.658.932,6.112,6.112,0,0,1-.577.883l-.15.182h-2.015a5.583,5.583,0,0,1-.537.957,2.125,2.125,0,0,0-.525,1.572,2.4,2.4,0,0,0,.707.09,9.868,9.868,0,0,0,1.028-.078,10.331,10.331,0,0,1,1.128-.082,2.851,2.851,0,0,1,1.591.408A2.611,2.611,0,0,1-1095.319-22231.92Z" transform="translate(1507.67 26744)" fill="rgba(0,0,0,0)"/></g></svg>