<svg xmlns="http://www.w3.org/2000/svg" width="232.562" height="28.077" viewBox="0 0 232.562 28.077"><g transform="translate(-1384.471 -1435.443)"><path d="M-2526.712,1958.006c0-10,5.5-15.95,14.7-15.95,7.364,0,11.737,4.148,11.7,11.127,0,10-5.5,15.95-14.7,15.95C-2522.339,1969.133-2526.712,1964.952-2526.712,1958.006Zm9.036-2.668a14.426,14.426,0,0,0-.289,2.862c0,2.637,1.286,4.212,3.472,4.212,3.442,0,4.534-3.151,5.178-6.528a14.423,14.423,0,0,0,.29-2.862c0-2.637-1.287-4.212-3.474-4.212C-2515.939,1948.81-2517.033,1951.928-2517.676,1955.337Zm17.751,7.717,7.364-1.993a3.415,3.415,0,0,0,3.216,2.122c1.447,0,2.283-.707,2.283-1.833,0-1.415-1.48-1.8-2.766-2.155-4.888-1.35-7.139-3.955-7.139-8.2,0-2.09.8-8.94,11.031-8.94,5.434,0,8.585,1.866,9.454,5.531l-7.46,2.026a2.7,2.7,0,0,0-2.573-1.672c-1.607,0-2.155,1-2.155,1.833,0,1.254,1.094,1.607,3.763,2.443,4.534,1.382,6.753,3.956,6.72,7.879,0,7.846-7.267,9-11.608,9C-2495.488,1969.1-2499.122,1966.914-2499.926,1963.055Zm-125.219-2.766a16.573,16.573,0,0,1,.321-3.247l2.572-14.439v-.032h8.458l-2.444,13.442a17.446,17.446,0,0,0-.386,3.248c0,2.251,1,3.344,3.054,3.344,3.152,0,3.7-2.219,4.47-6.464l2.412-13.57h8.457l-2.831,16.175c-1.317,7.557-4.952,10.354-13.377,10.354C-2618.456,1969.1-2625.144,1967.943-2625.144,1960.289Zm172.747,8.3,4.534-25.951h9.454v25.951Zm-18.49,0,3.281-19.005h-6.754l1.222-6.945h21.641l-1.222,6.945h-6.366l-3.344,19.005Zm-82.643,0L-2549,1942.6h10.8c6.206,0,9.744,2.926,9.744,8.039,0,7.267-4.084,11.255-11.448,11.255h-3.988l-1.19,6.689Zm10.74-13.088h2.444c2.379,0,3.827-1.318,3.827-3.473,0-1.7-1-2.637-2.862-2.637h-2.282Zm-32.961,13.088,4.534-25.983h18.393l-1.221,6.978h-9.937l-.8,4.824h7.106l-1.157,6.528h-7.139l-1.319,7.654Zm-22.188,0,4.534-25.983h18.394l-1.222,6.978h-9.937l-.8,4.824h7.106l-1.157,6.528h-7.106l-1.351,7.654Zm-42.093,0,1.7-9.712h-7.332l-1.7,9.712h-8.457l4.534-25.951h8.458l-1.672,9.293h7.332l1.672-9.293h8.457l-4.534,25.951Zm-29.939,0v-25.951h13.989l-4.567,25.951Z" transform="translate(4054.942 -506.113)" fill="#948e8e"/><path d="M-2515.008,1969.633c-3.725,0-6.819-1.071-8.946-3.1a11.414,11.414,0,0,1-3.258-8.53,21.617,21.617,0,0,1,1.029-6.87,14.289,14.289,0,0,1,3-5.194c2.646-2.869,6.507-4.386,11.165-4.386,3.864,0,7.031,1.131,9.161,3.271a11.444,11.444,0,0,1,3.043,8.359,21.612,21.612,0,0,1-1.029,6.868,14.285,14.285,0,0,1-3,5.194C-2506.489,1968.116-2510.35,1969.633-2515.008,1969.633Zm2.992-27.077c-8.889,0-14.2,5.776-14.2,15.45,0,6.654,4.188,10.627,11.2,10.627,8.889,0,14.2-5.776,14.2-15.45a10.474,10.474,0,0,0-2.752-7.651C-2505.5,1943.585-2508.424,1942.556-2512.016,1942.556Zm22.22,27.044a13.868,13.868,0,0,1-7.154-1.646,7.2,7.2,0,0,1-3.465-4.8l-.1-.461,8.265-2.237.156.435a2.911,2.911,0,0,0,2.745,1.79c.666,0,1.783-.173,1.783-1.333,0-.941-.926-1.267-2.338-1.656l-.061-.017a11.126,11.126,0,0,1-5.647-3.168,8.032,8.032,0,0,1-1.859-5.514,9.367,9.367,0,0,1,1.781-5.553,8.768,8.768,0,0,1,3.509-2.74,15.349,15.349,0,0,1,6.241-1.146,13.248,13.248,0,0,1,6.692,1.46,6.779,6.779,0,0,1,3.248,4.456l.112.471-8.362,2.271-.163-.42a2.2,2.2,0,0,0-2.107-1.353c-1.535,0-1.655,1.021-1.655,1.333,0,.82.6,1.086,3.412,1.966a11.051,11.051,0,0,1,5.3,3.139,7.684,7.684,0,0,1,1.768,5.221,9.326,9.326,0,0,1-1.278,4.976,8.211,8.211,0,0,1-3.161,2.9A16.755,16.755,0,0,1-2489.8,1969.6Zm-9.528-6.19c.943,3.352,4.3,5.19,9.528,5.19a15.773,15.773,0,0,0,7.2-1.5,7.356,7.356,0,0,0,3.913-7c.03-3.666-2.052-6.085-6.366-7.4a16.438,16.438,0,0,1-2.986-1.11,1.968,1.968,0,0,1-1.131-1.812,2.367,2.367,0,0,1,2.655-2.333,3.234,3.234,0,0,1,2.844,1.581l6.576-1.786c-.968-3.106-3.938-4.68-8.84-4.68-9.771,0-10.531,6.46-10.531,8.44,0,4.044,2.089,6.425,6.772,7.718l.06.017c1.3.357,3.072.846,3.072,2.62a2.145,2.145,0,0,1-.783,1.727,3.128,3.128,0,0,1-2,.607,3.972,3.972,0,0,1-3.5-2.027Zm-115.112,6.19a14.726,14.726,0,0,1-7.11-1.6,7.8,7.8,0,0,1-2.922-2.852,9.537,9.537,0,0,1-1.176-4.857,17.1,17.1,0,0,1,.33-3.34l2.563-14.39v-.488h9.557l-2.552,14.037a17.019,17.019,0,0,0-.377,3.152,3.183,3.183,0,0,0,.625,2.179,2.475,2.475,0,0,0,1.929.665c2.642,0,3.163-1.569,3.979-6.053l2.485-13.981h9.471l-.1.586-2.831,16.175c-.7,3.995-2.034,6.639-4.209,8.321C-2606.937,1968.822-2610.006,1969.6-2614.436,1969.6Zm-7.39-26.529-2.506,14.069a16.083,16.083,0,0,0-.312,3.149c0,3.173,1.21,5.475,3.6,6.842a13.744,13.744,0,0,0,6.613,1.469c4.2,0,7.072-.711,9.048-2.239s3.185-3.968,3.836-7.7l2.728-15.589h-7.443l-2.339,13.158a16.353,16.353,0,0,1-1.4,4.987,3.721,3.721,0,0,1-3.561,1.89,3.447,3.447,0,0,1-2.668-.991,4.062,4.062,0,0,1-.886-2.853,17.922,17.922,0,0,1,.395-3.34l2.336-12.85Zm183.917,26.016h-15.083l.1-.586,4.606-26.365h10.374Zm-13.893-1h12.893v-24.951h-8.533Zm-10.208,1h-9.471l.1-.585,3.179-18.42h-6.756l1.4-7.945h22.657l-1.4,7.945h-6.366Zm-8.283-1h7.444l3.344-19.005h6.366l1.046-5.945h-20.626l-1.046,5.945h6.752l-.1.585Zm-74.361,1h-9.471l.1-.586,4.607-26.4h11.225c3.207,0,5.736.746,7.518,2.216a7.874,7.874,0,0,1,2.727,6.322c0,3.753-1.047,6.683-3.112,8.71s-5.032,3.046-8.836,3.046h-3.569Zm-8.281-1h7.444l1.19-6.689h4.407c7.06,0,10.948-3.82,10.948-10.755,0-4.861-3.283-7.539-9.244-7.539h-10.384Zm-13.937,1h-9.473l.1-.586,4.606-26.4h19.409l-1.4,7.978h-9.934l-.637,3.824h7.113l-1.335,7.528h-7.137Zm-8.284-1h7.441l1.319-7.654h7.141l.98-5.528h-7.1l.97-5.824h9.94l1.046-5.978H-2570.8Zm-13.906,1h-9.471l.1-.586,4.606-26.4h19.41l-1.4,7.978h-9.933l-.637,3.824h7.112l-1.334,7.528h-7.106Zm-8.282-1h7.443l1.351-7.654h7.107l.98-5.528h-7.1l.97-5.824h9.94l1.047-5.978h-17.378Zm-33.81,1h-9.473l1.7-9.712h-6.317l-1.7,9.712h-9.472l.1-.586,4.606-26.365h9.476l-.106.589-1.567,8.7h6.316l1.672-9.293h9.47l-.1.586Zm-8.282-1H-2632l4.359-24.951h-7.444l-1.672,9.293h-8.348l.106-.589,1.567-8.7h-7.439l-4.359,24.951h7.442l1.7-9.712h8.348Zm-20.692,1h-10.342v-26.951h15.084Zm-9.342-1h8.5l4.391-24.951h-12.893Zm154.979-5.175a3.665,3.665,0,0,1-2.942-1.3,5.31,5.31,0,0,1-1.03-3.412,14.837,14.837,0,0,1,.3-2.957c.647-3.427,1.827-6.933,5.668-6.933a3.667,3.667,0,0,1,2.943,1.3,5.307,5.307,0,0,1,1.031,3.412,14.829,14.829,0,0,1-.3,2.957C-2509.478,1959.406-2510.662,1962.911-2514.493,1962.911Zm1.993-13.6a3.556,3.556,0,0,0-3.218,1.758,12.691,12.691,0,0,0-1.468,4.363,13.907,13.907,0,0,0-.28,2.769c0,2.359,1.083,3.712,2.972,3.712,3.094,0,4.081-2.942,4.687-6.121a13.883,13.883,0,0,0,.281-2.768C-2509.525,1950.663-2510.609,1949.31-2512.5,1949.31Zm-27.848,6.689h-3.044l1.31-7.11h2.7c2.137,0,3.362,1.143,3.362,3.137a3.807,3.807,0,0,1-1.185,2.915A4.575,4.575,0,0,1-2540.347,1956Zm-1.843-1h1.843c2.114,0,3.327-1.084,3.327-2.973,0-1.438-.773-2.137-2.362-2.137h-1.866Z" transform="translate(4054.942 -506.113)" fill="rgba(0,0,0,0)"/></g></svg>