<svg xmlns="http://www.w3.org/2000/svg" width="280" height="31" viewBox="0 0 280 31"><path d="M-1832.085,2480.077a8.89,8.89,0,0,1-2.988-7.19v-20.858h4.505V2472.6a5.843,5.843,0,0,0,1.9,4.524,6.853,6.853,0,0,0,4.979,1.762,7.45,7.45,0,0,0,5.169-1.714,5.944,5.944,0,0,0,1.9-4.667v-20.477h4.505v20.905a8.745,8.745,0,0,1-3.083,7.1c-2.087,1.714-4.885,2.571-8.442,2.571C-1827.3,2482.6-1830.094,2481.743-1832.085,2480.077Zm-113.252,2.429-7.778-20.715-7.3,20.715h-1.375l-10.339-30.429h4.647l6.545,20.953,7.209-20.953h1.565l7.066,20.9,6.734-20.9h4.648l-10.244,30.429Zm-61.558,0-16.883-21.953v21.524H-2028v-30h1.755l16.456,20.762v-20.762h4.268v30.429Zm243.91-.429v-13.428l-10.529-16.62h4.6l8.157,13.144,8.157-13.144h4.6l-10.481,16.62v13.428Zm-31.633,0v-26.334h-10.433v-3.714h25.847v3.714h-10.908v26.334Zm-52.642,0-3.177-8.857h-10.244l-3.415,8.857h-5.027l13.326-30.477h1.186l12.331,30.477Zm-12.235-11.857h7.778l-3.7-10.667Zm-36.281,11.857v-30h19.3v3.667h-14.8v8.333h10.529v3.476h-10.529v10.81h14.8v3.715Zm-29.309,0v-30c3.936-.19,6.829-.286,8.584-.286,3.225,0,5.738.619,7.493,1.905a6.385,6.385,0,0,1,2.656,5.476,5.318,5.318,0,0,1-1.707,3.809,7.357,7.357,0,0,1-3.747,2.143,10.394,10.394,0,0,1,5.644,2.857,8.107,8.107,0,0,1,1.85,5.382,7.544,7.544,0,0,1-3.178,6.333,13.381,13.381,0,0,1-8.252,2.381Zm4.458-14.905V2478.6c1.518.143,2.7.19,3.51.19q4.2,0,6.118-1.429a5.59,5.59,0,0,0,1.944-4.572,5.113,5.113,0,0,0-1.849-4.333c-1.233-.9-3.272-1.381-6.118-1.381Zm0-11.857v8.571c.949.1,2.087.143,3.462.143,4.221,0,6.308-1.572,6.308-4.714,0-2.762-1.9-4.143-5.786-4.143Q-1918.85,2455.171-1920.629,2455.315Zm-75.928,26.762v-30.048h19.3v3.714H-1992.1v8.333h10.529v3.476H-1992.1v10.81h14.844v3.715Z" transform="translate(2028 -2451.6)" fill="#948e8e"/></svg>